<?xml version="1.0" encoding="utf-8"?>
<!-- Generator: Adobe Illustrator 19.1.0, SVG Export Plug-In . SVG Version: 6.00 Build 0)  -->
<svg version="1.1" id="Слой_1" xmlns="http://www.w3.org/2000/svg" xmlns:xlink="http://www.w3.org/1999/xlink" x="0px" y="0px"
	 viewBox="0 0 595.3 841.9" style="enable-background:new 0 0 595.3 841.9;" xml:space="preserve">
<style type="text/css">
	.st0{fill:#FFFFFF;}
</style>
<g>
	<path class="st0" d="M-275,506.2c-2.6,0-5.1-1-7.1-2.9c-3.9-3.9-3.9-10.2,0-14.1l60.3-60.3c2-2,3.1-4.7,3.1-7.6
		c0-2.9-1.1-5.6-3.1-7.6l-60.3-60.3c-3.9-3.9-3.9-10.2,0-14.1c3.9-3.9,10.2-3.9,14.1,0l60.3,60.3c5.8,5.8,9,13.5,9,21.7
		s-3.2,15.9-9,21.7l-60.3,60.3C-269.8,505.2-272.4,506.2-275,506.2z"/>
</g>
</svg>
