<svg viewBox="-286 336 88 171" version="1.1" xmlns="http://www.w3.org/2000/svg" xmlns:xlink="http://www.w3.org/1999/xlink">
  <path d="M-275,506.2 C-277.6,506.2 -280.1,505.2 -282.1,503.3 C-286,499.4 -286,493.1 -282.1,489.2 L-221.8,428.9 C-219.8,426.9 -218.7,424.2 -218.7,421.3 C-218.7,418.4 -219.8,415.7 -221.8,413.7 L-282.1,353.4 C-286,349.5 -286,343.2 -282.1,339.3 C-278.2,335.4 -271.9,335.4 -268,339.3 L-207.7,399.6 C-201.9,405.4 -198.7,413.1 -198.7,421.3 C-198.7,429.5 -201.9,437.2 -207.7,443 L-268,503.3 C-269.8,505.2 -272.4,506.2 -275,506.2 L-275,506.2 Z" id="Shape" stroke="none" fill="#000000" fill-rule="evenodd"></path>
</svg>
