<svg width="253px" height="170px" viewBox="-451 336 253 170" version="1.1" xmlns="http://www.w3.org/2000/svg" xmlns:xlink="http://www.w3.org/1999/xlink">
  <path d="M-207.6,399.6 L-267.9,339.3 C-271.8,335.4 -278.1,335.4 -282,339.3 C-285.9,343.2 -285.9,349.5 -282,353.4 L-224.2,411.2 L-441,411.2 C-446.5,411.2 -451,415.7 -451,421.2 C-451,426.7 -446.5,431.2 -441,431.2 L-224.2,431.2 L-282,489 C-285.9,492.9 -285.9,499.2 -282,503.1 C-280,505.1 -277.5,506 -274.9,506 C-272.3,506 -269.8,505 -267.8,503.1 L-207.5,442.8 C-201.7,437 -198.5,429.3 -198.5,421.1 C-198.5,412.9 -201.8,405.4 -207.6,399.6 L-207.6,399.6 Z" id="Shape" stroke="none" fill="#000000" fill-rule="evenodd"></path>
</svg>
