<svg viewBox="752 309 30 21" version="1.1" xmlns="http://www.w3.org/2000/svg" xmlns:xlink="http://www.w3.org/1999/xlink">
  <path d="M777.6,309.7 L756.5,309.7 C754.2,309.7 752.2,311.6 752.2,314 L752.2,325 C752.2,327.3 754.1,329.3 756.5,329.3 L777.6,329.3 C780,329.3 781.9,327.4 781.9,325 L781.9,314 C781.8,311.7 779.9,309.7 777.6,309.7 L777.6,309.7 Z M777.6,311.2 C778.3,311.2 778.9,311.5 779.4,311.9 L767.1,320.4 L754.8,311.9 C755.3,311.5 755.9,311.2 756.5,311.2 L777.6,311.2 L777.6,311.2 Z M780.3,325 C780.3,326.5 779.1,327.8 777.5,327.8 L756.4,327.8 C754.9,327.8 753.6,326.5 753.6,325 L753.6,314 C753.6,313.8 753.6,313.5 753.7,313.3 L766.4,322.1 C766.6,322.2 766.8,322.2 766.9,322.2 C767,322.2 767.1,322.2 767.4,322.1 L780.1,313.4 C780.2,313.6 780.2,313.8 780.2,314 L780.2,325 L780.3,325 Z" id="Shape" stroke="none" fill="#000000" fill-rule="evenodd"></path>
</svg>
