<?xml version="1.0" encoding="utf-8"?>
<!-- Generator: Adobe Illustrator 19.1.0, SVG Export Plug-In . SVG Version: 6.00 Build 0)  -->
<svg version="1.1" id="Слой_1" xmlns="http://www.w3.org/2000/svg" xmlns:xlink="http://www.w3.org/1999/xlink" x="0px" y="0px"
	 viewBox="0 0 595.3 841.9" style="enable-background:new 0 0 595.3 841.9;" xml:space="preserve">
<style type="text/css">
	.st0{fill:#010002;}
</style>
<path class="st0" d="M777.6,309.7h-21.1c-2.3,0-4.3,1.9-4.3,4.3v11c0,2.3,1.9,4.3,4.3,4.3h21.1c2.4,0,4.3-1.9,4.3-4.3v-11
	C781.8,311.7,779.9,309.7,777.6,309.7z M777.6,311.2c0.7,0,1.3,0.3,1.8,0.7l-12.3,8.5l-12.3-8.5c0.5-0.4,1.1-0.7,1.7-0.7H777.6z
	 M780.3,325c0,1.5-1.2,2.8-2.8,2.8h-21.1c-1.5,0-2.8-1.3-2.8-2.8v-11c0-0.2,0-0.5,0.1-0.7l12.7,8.8c0.2,0.1,0.4,0.1,0.5,0.1
	c0.1,0,0.2,0,0.5-0.1l12.7-8.7c0.1,0.2,0.1,0.4,0.1,0.6V325z"/>
</svg>
