<svg viewBox="685 308 20 25" version="1.1" xmlns="http://www.w3.org/2000/svg" xmlns:xlink="http://www.w3.org/1999/xlink">
  <g id="location" stroke="none" stroke-width="1" fill="none" fill-rule="evenodd" transform="translate(685.000000, 308.000000)">
    <path d="M9.7,0.2 C4.4,0.2 0,4.5 0,9.9 C0,15.1 8.8,24.4 9.2,24.8 C9.3,24.9 9.5,25 9.7,25 C9.9,25 10.1,24.9 10.2,24.8 C10.6,24.4 19.4,15 19.4,9.9 C19.4,4.5 15.1,0.2 9.7,0.2 L9.7,0.2 Z M9.7,23.3 C7,20.3 1.4,13.5 1.4,9.9 C1.4,5.4 5.1,1.6 9.7,1.6 C14.2,1.6 18,5.3 18,9.9 C18,13.5 12.4,20.3 9.7,23.3 L9.7,23.3 Z" id="Shape" fill="#000000"></path>
    <path d="M9.7,4.7 C7.4,4.7 5.6,6.5 5.6,8.8 C5.6,11.1 7.4,12.9 9.7,12.9 C12,12.9 13.8,11.1 13.8,8.8 C13.8,6.5 12,4.7 9.7,4.7 L9.7,4.7 Z M9.7,11.5 C8.2,11.5 7,10.3 7,8.8 C7,7.3 8.2,6.1 9.7,6.1 C11.2,6.1 12.4,7.3 12.4,8.8 C12.4,10.3 11.2,11.5 9.7,11.5 L9.7,11.5 Z" id="Shape" fill="#000000"></path>
  </g>
</svg>
