<?xml version="1.0" encoding="utf-8"?>
<!-- Generator: Adobe Illustrator 19.1.0, SVG Export Plug-In . SVG Version: 6.00 Build 0)  -->
<svg version="1.1" id="Слой_1" xmlns="http://www.w3.org/2000/svg" xmlns:xlink="http://www.w3.org/1999/xlink" x="0px" y="0px"
	 viewBox="0 0 595.3 841.9" style="enable-background:new 0 0 595.3 841.9;" xml:space="preserve">
<style type="text/css">
	.st0{fill:#3C3C3B;}
</style>
<g>
	<path class="st0" d="M694.7,308.2c-5.3,0-9.7,4.3-9.7,9.7c0,5.2,8.8,14.5,9.2,14.9c0.1,0.1,0.3,0.2,0.5,0.2s0.4-0.1,0.5-0.2
		c0.4-0.4,9.2-9.8,9.2-14.9C704.4,312.5,700.1,308.2,694.7,308.2z M694.7,331.3c-2.7-3-8.3-9.8-8.3-13.4c0-4.5,3.7-8.3,8.3-8.3
		c4.5,0,8.3,3.7,8.3,8.3C703,321.5,697.4,328.3,694.7,331.3z"/>
	<path class="st0" d="M694.7,312.7c-2.3,0-4.1,1.8-4.1,4.1c0,2.3,1.8,4.1,4.1,4.1s4.1-1.8,4.1-4.1
		C698.8,314.5,697,312.7,694.7,312.7z M694.7,319.5c-1.5,0-2.7-1.2-2.7-2.7s1.2-2.7,2.7-2.7s2.7,1.2,2.7,2.7
		S696.2,319.5,694.7,319.5z"/>
</g>
</svg>
