<?xml version="1.0" encoding="utf-8"?>
<!-- Generator: Adobe Illustrator 19.1.0, SVG Export Plug-In . SVG Version: 6.00 Build 0)  -->
<svg version="1.1" id="Слой_1" xmlns="http://www.w3.org/2000/svg" xmlns:xlink="http://www.w3.org/1999/xlink" x="0px" y="0px"
	 viewBox="0 0 595.3 841.9" style="enable-background:new 0 0 595.3 841.9;" xml:space="preserve">
<style type="text/css">
	.st0{fill:#333333;}
</style>
<path class="st0" d="M736,326.6l-4.8-3.6c-1.1-0.8-2.5-0.6-3.5,0.4l-1.4,1.9c-1.3-0.6-2.7-1.7-4-3c-1.3-1.3-2.3-2.6-3.1-4l1.9-1.4
	l0.1-0.1c0.6-0.6,0.9-1.3,0.9-1.9c0-0.5-0.2-1-0.5-1.5l-3.7-4.7c-0.8-1-2.3-1.2-3.4-0.4c-0.3,0.2-3.3,2.1-3.5,4.8
	c-0.2,1.9,1,7,7.2,13.2c4.1,4.1,9.9,6.6,13,6.6c3.5,0,5.3-2.9,5.3-3c0.3-0.4,0.4-0.9,0.4-1.4C737,327.8,736.6,327.1,736,326.6z
	 M735.3,329.2c0,0-1.4,2.3-4.1,2.3c-2.8,0-8.2-2.4-12-6.2c-6-6-6.9-10.7-6.8-12c0.2-2.1,2.8-3.7,2.8-3.7l0,0
	c0.2-0.1,0.4-0.2,0.6-0.2c0.3,0,0.6,0.1,0.8,0.3l3.7,4.7c0.1,0.2,0.2,0.4,0.2,0.6c0,0.2-0.2,0.5-0.4,0.8l-2,1.5l-0.1,0.1
	c-0.4,0.4-0.6,0.9-0.4,1.5l0.1,0.1c0.8,1.5,1.9,3,3.4,4.5c1.5,1.5,3.1,2.6,4.6,3.3c0.5,0.2,1.1,0.1,1.6-0.3l1.5-2
	c0.3-0.4,0.9-0.6,1.4-0.2l4.8,3.6c0.3,0.2,0.4,0.5,0.4,0.8C735.5,328.8,735.4,329,735.3,329.2z"/>
</svg>
