<svg xmlns="http://www.w3.org/2000/svg" viewBox="0 0 595.3 841.9">
  <path d="M736 326.6l-4.8-3.6c-1.1-.8-2.5-.6-3.5.4l-1.4 1.9c-1.3-.6-2.7-1.7-4-3-1.3-1.3-2.3-2.6-3.1-4l1.9-1.4.1-.1c.6-.6.9-1.3.9-1.9 0-.5-.2-1-.5-1.5l-3.7-4.7c-.8-1-2.3-1.2-3.4-.4-.3.2-3.3 2.1-3.5 4.8-.2 1.9 1 7 7.2 13.2 4.1 4.1 9.9 6.6 13 6.6 3.5 0 5.3-2.9 5.3-3 .3-.4.4-.9.4-1.4.1-.7-.3-1.4-.9-1.9zm-.7 2.6s-1.4 2.3-4.1 2.3c-2.8 0-8.2-2.4-12-6.2-6-6-6.9-10.7-6.8-12 .2-2.1 2.8-3.7 2.8-3.7.2-.1.4-.2.6-.2.3 0 .6.1.8.3l3.7 4.7c.1.2.2.4.2.6 0 .2-.2.5-.4.8l-2 1.5-.1.1c-.4.4-.6.9-.4 1.5l.1.1c.8 1.5 1.9 3 3.4 4.5s3.1 2.6 4.6 3.3c.5.2 1.1.1 1.6-.3l1.5-2c.3-.4.9-.6 1.4-.2l4.8 3.6c.3.2.4.5.4.8.1.1 0 .3-.1.5z"/>
</svg>
