<svg viewBox="111 513 229 230" version="1.1" xmlns="http://www.w3.org/2000/svg" xmlns:xlink="http://www.w3.org/1999/xlink">
  <path d="M333.8,705.9 L282.7,654.8 C291.9,640 296.8,623.2 296.8,606 C296.8,581.3 287.2,558 269.7,540.5 C252.2,523 228.9,513.4 204.2,513.4 C153.1,513.4 111.5,555 111.5,606.1 C111.5,657.2 153.1,698.8 204.2,698.8 C221.3,698.8 238.2,693.9 253,684.7 L304.1,735.8 C308.1,739.8 313.4,742 319,742 C324.6,742 329.9,739.8 333.9,735.8 C342,727.4 342,714.1 333.8,705.9 L333.8,705.9 Z M204.2,669.6 C169.1,669.6 140.6,641.1 140.6,606 C140.6,570.9 169.1,542.4 204.2,542.4 C239.3,542.4 267.8,570.9 267.8,606 C267.8,641.1 239.3,669.6 204.2,669.6 L204.2,669.6 Z" id="Shape" stroke="none" fill="#000000" fill-rule="evenodd"></path>
</svg>
