<svg xmlns="http://www.w3.org/2000/svg" viewBox="0 0 595.3 841.9">
  <path d="M-128.2 386.9c-9 82-83.1 141.5-165.1 132.5s-141.5-83-132.5-165.1c.1-1 .2-1.9.4-2.9 4.4-1.1 72.8-17.1 100.8-.8 9.7 5.6 16.8 13.5-1.4 47.4s-17.7 54.5 1.8 73.4c8.4 8.1 19.5 12.2 30.7 12.2 10.7 0 21.5-3.7 30.2-11.1 23-19.7 18.4-50.8 6.3-73.3-8.3-15.6-10.9-27.8-7.7-36.1 2-5.1 6.3-8.9 12.7-11.2 8.6-3 18.9-4.4 33.4-4.5v-3c-14.9.1-25.5 1.5-34.4 4.6-7.3 2.6-12.1 6.9-14.5 12.9-3.6 9.2-1 22.2 7.8 38.6 11.5 21.5 16 51.1-5.6 69.7-16.7 14.2-41.7 13.8-56.9-.9-18.4-17.8-18.7-37.4-1.3-69.8 17.6-32.7 13.1-43.9.3-51.4-27.9-16.3-91.3-2.3-101.9.2 11.9-78.9 84.3-135.2 164.3-126.4 33.1 3.6 63.3 17.7 87.2 40.7l2.1-2.2c-24.4-23.4-55.2-37.8-89-41.5-83.7-9.2-159.2 51.5-168.4 135.1-9.2 83.7 51.5 159.2 135.1 168.4 5.6.6 11.2.9 16.7.9 76.8 0 143.1-58 151.7-136.1.3-2.3.5-4.7.6-7l-3-.2c.1 2.3-.1 4.6-.4 6.9z"/>
  <path d="M-112.5 306.8c-.2-1.2-.9-2.3-1.9-3l-21.2-14.8c-2.1-1.4-5-1-6.5 1l-15.4 20.1c-.6.7-1.6.9-2.4.4-2.1-1.4-5-1-6.5 1l-11.4 15.2c-.7 1-1.1 2.2-.9 3.4.2 1.2.9 2.3 1.9 3l6.9 4.8-51.5 76.3c-3.3 4.1-1.6 9.3 1.9 12.3 1.9 1.6 4.3 2.7 6.9 2.7 2.5 0 5.2-1 7.5-3.5l52.8-75.6 6.8 4.7c.8.6 1.7.8 2.7.8 1.4 0 2.9-.7 3.8-1.9l11.7-15.5c1.4-1.8 1.2-4.4-.5-5.9l-.5-.5c-.5-.5-.6-1.4-.2-2l15.1-19.8c.8-.7 1.1-2 .9-3.2zm-94.9 117c-3.6 3.8-7.7 2.7-10.2.5-2.4-2.1-3.6-5.6-1.5-8.2l51.2-75.8 12.6 8.8-52.1 74.7zm91.6-115.4l-15.1 19.8c-1.4 1.8-1.2 4.4.5 5.9l.5.5c.5.5.6 1.4.1 2l-11.7 15.5c-.6.7-1.6.9-2.4.4l-31.2-21.7c-.3-.2-.6-.6-.6-1s0-.8.3-1.1l11.4-15.2c.3-.4.9-.7 1.4-.7.3 0 .7.1 1 .3 2.1 1.4 5 1 6.5-1l15.4-20.1c.6-.7 1.6-.9 2.4-.4l21.2 14.8c.3.2.6.6.6 1 .1.3 0 .7-.3 1zM-316.9 446.2c2.8 10.4 12.2 17.2 22.5 17.2 2 0 4-.3 6.1-.8 6.1-1.6 11.3-5.7 14.4-11.2 3-5.4 3.7-11.6 2-17.4-.8-2.6-1.4-4.7-1.9-6.5-1.6-5.6-2.5-8.3-3.9-13.9-2.5-9.8-3.8-18.4-4-38.2-.6-50.9-12.9-78-23.2-91.7-11.3-15.1-22.5-17.9-23-18l-4.8-1.1 3.3 3.6c.2.2 15.2 16.7 24.5 44.8 8.5 26 13.7 67.3-10.3 117-2.7 5.2-3.2 10.7-1.7 16.2zm4.3-14.9c24.5-50.5 19.2-92.7 10.5-119.2-6.6-20-15.9-34.1-21.1-41.1 4.1 2.3 10.1 6.7 16 14.7 9.9 13.4 21.9 39.8 22.4 89.6.2 20.1 1.6 28.9 4.1 38.9 1.4 5.6 2.3 8.4 3.9 14 .5 1.8 1.2 3.9 1.9 6.5 1.5 5.1.8 10.4-1.8 15.1-2.7 4.8-7.2 8.3-12.5 9.7-10.8 2.9-22-3.5-24.9-14.3-1.2-4.6-.8-9.2 1.5-13.9z"/>
  <path d="M-294.7 446.3h.2c3-.1 5.7-1.6 7.3-4.1l-2.5-1.6c-1 1.7-2.8 2.7-4.8 2.7-1.5 0-3-.5-4.1-1.6s-1.7-2.5-1.8-4.1c0-1.1.3-2.2.8-3.1l-2.6-1.6c-.9 1.4-1.3 3.1-1.3 4.7 0 2.3 1 4.5 2.7 6.2 1.7 1.7 3.8 2.5 6.1 2.5z"/>
</svg>
