<?xml version="1.0" encoding="utf-8"?>
<!-- Generator: Adobe Illustrator 19.1.0, SVG Export Plug-In . SVG Version: 6.00 Build 0)  -->
<svg version="1.1" id="Слой_1" xmlns="http://www.w3.org/2000/svg" xmlns:xlink="http://www.w3.org/1999/xlink" x="0px" y="0px"
	 viewBox="0 0 595.3 841.9" style="enable-background:new 0 0 595.3 841.9;" xml:space="preserve">
<style type="text/css">
	.st0{fill:#FFFFFF;}
</style>
<g>
	<path class="st0" d="M-397.5,334.1c-26.7-30.8-63.8-49.4-104.5-52.3c-84-6-157.2,57.4-163.2,141.4c-6,84,57.4,157.2,141.4,163.2
		c3.7,0.3,7.4,0.4,11.1,0.4c16.7,0,33.2-2.7,49-8.1l-1-2.8c-19,6.5-38.8,9-59,7.6c-82.3-5.9-144.5-77.7-138.6-160
		c5.9-82.3,77.7-144.5,160-138.6c39.9,2.9,76.3,21.1,102.4,51.3c26.2,30.2,39,68.8,36.2,108.7c-1.6,22.7-8.1,44.1-19.4,63.7l2.6,1.5
		c11.4-20,18.1-41.8,19.8-64.9C-357.7,404.3-370.8,364.9-397.5,334.1z"/>
	<path class="st0" d="M-439.8,502.9l-6.5-13.3c-0.1-1.1-0.7-2.1-1.6-2.7l-6.2-6c-0.3-0.3-0.7-0.6-1.1-0.7l-10-15.5l-0.2-0.2
		c-2.6-2.8-10.7-1.5-17.1,4.2c-6,5.4-7,10.5-7.1,13c-0.1,2.1,0.5,4,1.5,5l15.5,9.8c0.2,0.6,0.5,1.2,0.9,1.6l6.2,6
		c0.6,0.9,1.7,1.5,2.8,1.5l13.6,6l33.5,32.7c1.2,1.1,2.7,1.8,4.4,1.8c0,0,0.1,0,0.1,0c1.7,0,3.3-0.7,4.4-1.9s1.8-2.8,1.8-4.5
		s-0.7-3.3-1.9-4.4L-439.8,502.9z M-480.5,470.9c5.7-5.2,11.8-5.2,12.8-4.4l9.1,14.2c-0.2,0.1-0.3,0.2-0.4,0.4l-8,7.6l-15.7-15.5
		C-482.1,472.4-481.3,471.6-480.5,470.9z M-486.6,481.7c0-1.1,0.4-3.4,2.1-6.2l15.3,15.1l-2.6,2.5c-0.1,0.1-0.1,0.1-0.1,0.2
		l-14.1-8.9C-486.3,484.1-486.6,483.2-486.6,481.7z M-408.8,542c-0.6,0.6-1.4,1-2.3,1c-0.9,0-1.7-0.3-2.4-0.9l-33.8-33.1l-14.4-6.3
		l-0.4-0.2l-0.4,0c-0.2,0-0.3-0.1-0.4-0.2l-0.1-0.2l-6.5-6.3c0,0,0,0,0-0.1l0.5-0.8l-0.2-0.1l12.4-11.9c0.1-0.1,0.3-0.1,0.3-0.1
		c0.1,0,0.2,0,0.3,0.1l6.5,6.3l0.2,0.1c0.2,0.1,0.3,0.3,0.3,0.4l0,0.4l7,14.4l33.4,32.7c0.6,0.6,1,1.4,1,2.3
		C-407.9,540.5-408.2,541.4-408.8,542z"/>
	<path class="st0" d="M-490.1,517.9l-2.2-2c-6.6,7.3-16.1,14.8-36,14.8v3C-507.2,533.7-496.8,525.2-490.1,517.9z"/>
	<path class="st0" d="M-477.5,433c-0.6,0.4-13.8,9.5-27.2,0l-1.7,2.4c5.1,3.6,10.2,4.8,14.7,4.8c9,0,15.8-4.7,16-4.8L-477.5,433z"/>
	<path class="st0" d="M-542.5,435.4l-1.7-2.4c-0.6,0.4-13.8,9.5-27.2,0l-1.7,2.4c5.1,3.6,10.2,4.8,14.7,4.8
		C-549.4,440.2-542.6,435.5-542.5,435.4z"/>
	<path class="st0" d="M-525.1,504.6c10.6,0,18.7-6.6,18.8-6.7l2.1-1.7l-2.5-0.9c-2.6-0.9-3.9-1.6-5.1-2.1c-1.3-0.7-2.5-1.2-4.6-1.8
		c-2.9-0.8-4.5,0-5.8,0.6c-0.7,0.3-1.3,0.6-2,0.6c-0.8,0-1.7-0.3-2.7-0.7c-1.8-0.6-4-1.4-6.3-0.4c-3,1.2-8.5,3.8-8.7,3.9l-2.1,1
		l1.8,1.5C-536.4,503-530.4,504.6-525.1,504.6z M-532.2,494.3c1.3-0.5,2.6-0.1,4.1,0.5c1.2,0.4,2.4,0.9,3.7,0.9
		c1.4,0,2.5-0.5,3.3-0.9c1.1-0.5,1.9-0.9,3.7-0.4c1.9,0.5,2.8,1,4.1,1.6c0.8,0.4,1.6,0.8,2.8,1.3c-4.7,3-16.2,8.4-28.2-0.1
		C-536.7,496.2-534,495-532.2,494.3z"/>
	<path class="st0" d="M-497.5,356.8c0.3,1.5,2.3,2.8,8.3,6.1c5,2.8,11.3,6.3,14.9,9.9c12.9,12.8,16.8,32.5,16.2,41.9
		c-0.7,10.8,0.1,20.5,0.1,20.6l0.4,5.3l2.4-4.7c0.1-0.2,0.6-1.2,1.3-2.7c2.7-0.3,6.3-0.1,7.2,1.7c1.6,3.6-0.2,9.9-5,17.2l2.5,1.6
		c5.4-8.4,7.3-15.5,5.3-20.1c-1.4-3.2-5.5-3.8-8.5-3.6c4.3-10,12.1-31,10.3-48.9c-2.9-27.8-15.8-42.2-26.1-49.3
		c-11.2-7.8-21.6-8.9-22.1-8.9l-3.3-0.3l2,2.7c0.3,0.5,8.4,11.8-5.4,30.1C-497.5,355.7-497.6,356.2-497.5,356.8z M-487.7,326.3
		c3.8,0.9,10.7,3,17.9,8c14.2,9.9,22.5,25.7,24.7,47.1c1.8,17.1-6,37.9-10.1,47.6c-0.1-3.7-0.1-8.7,0.2-14
		c0.6-10.3-3.4-30.6-17-44.2c-3.9-3.8-10.3-7.5-15.5-10.4c-2.5-1.4-5.4-3-6.5-4C-483.6,341.9-485.7,331.2-487.7,326.3z"/>
	<path class="st0" d="M-501.6,320.6c-17.1-10.2-55.8-3.5-75.3,13c-19.8,16.7-22.8,56.8-23.2,73.3c-0.3,14.3,5,28.2,5.2,28.7l2,5
		l0.9-5.3c0-0.1,1.1-6.2,3-11.4c2.6-7.3,2.9-10.6,3.3-14.4c0.3-2.7,0.5-5.8,1.8-11.1c3.5-14.4,8.4-23.3,15.7-29
		c7.3-5.7,16.4-6.6,27.8-7.9c1.7-0.2,3.5-0.4,5.3-0.6c14-1.7,30-3,30.1-3l0.7-0.1l0.4-0.5c0.5-0.6,11.5-15.6,9.1-27.3
		C-495.6,326-497.9,322.8-501.6,320.6z M-505.9,355c-3.2,0.3-17.1,1.5-29.5,3c-1.8,0.2-3.6,0.4-5.3,0.6c-11.9,1.3-21.3,2.3-29.3,8.5
		c-10.2,7.8-14.3,20.5-16.8,30.7c-1.3,5.5-1.6,8.7-1.9,11.5c-0.4,3.7-0.6,6.7-3.1,13.6c-0.8,2.2-1.4,4.5-1.9,6.5
		c-1.5-5.3-3.5-13.8-3.3-22.4c0.3-12.5,2.8-54.7,22.2-71.1c13.3-11.2,34.5-17,51.4-17c8.3,0,15.7,1.4,20.5,4.3
		c3,1.8,4.8,4.2,5.4,7.5C-495.9,339.9-504,352.3-505.9,355z"/>
</g>
</svg>
