<svg xmlns="http://www.w3.org/2000/svg" viewBox="0 0 595.3 841.9">
  <path d="M-246.3 334.3l-2.7 1.4c11.1 21.2 17 45.2 17 69.4 0 82.5-67.1 149.7-149.7 149.7-82.5 0-149.7-67.1-149.7-149.7 0-82.5 67.1-149.7 149.7-149.7 28.1 0 55.5 7.8 79.2 22.6l1.6-2.5c-24.2-15.1-52.1-23.1-80.8-23.1-84.2 0-152.7 68.5-152.7 152.7 0 84.2 68.5 152.7 152.7 152.7 84.2 0 152.7-68.5 152.7-152.7.1-24.7-5.9-49.2-17.3-70.8z"/>
  <path d="M-307.5 323.6l-4.7-1.4c-5.5-1.6-11.4-.1-15.4 3.8l-56.1 50.5-17.6-3.3c-4.4-.7-9 .8-12.1 4l-8.3 8.3c-2.3 2.3-3.2 5.5-2.6 8.6 2.8 14 9.6 26.7 19.7 36.7 10.1 10.1 22.8 16.9 36.7 19.7.6.1 1.3.2 1.9.2 2.5 0 4.9-1 6.7-2.8l8.3-8.3c3.2-3.2 4.6-7.7 3.9-12.2l-3.3-17.5 50.4-56c4-4 5.5-10 3.9-15.4l-1.4-4.7c-.8-2.7-1.4-4.5-2.1-5.8l27.3-27.3-2.1-2.1-27.3 27.3c-1.3-.9-3.1-1.5-5.8-2.3zM-350 427.9c.5 3.5-.6 7-3.1 9.5l-8.3 8.3c-1.5 1.5-3.8 2.2-5.9 1.8-13.4-2.7-25.5-9.2-35.2-18.8-9.6-9.6-16.2-21.8-18.8-35.2-.4-2.1.2-4.4 1.8-5.9l8.3-8.3c2.1-2.1 4.9-3.2 7.8-3.2.6 0 1.1 0 1.7.1l17.8 3.4 30.6 30.6 3.3 17.7zm47.9-76.1l-49.9 55.4-29-29 55.5-49.9c3.3-3.3 8-4.5 12.4-3.1l4.7 1.4c3.2 1 4.9 1.5 5.7 2.3.9.9 1.3 2.5 2.3 5.7l1.4 4.7c1.4 4.4.2 9.1-3.1 12.5z"/>
  <path d="M-357.4 470.9c-5.6 1.4-11.4 2.1-17.2 2.1-39.7 0-72-32.3-72-72 0-5 .5-10.1 1.6-15l-2.9-.6c-1.1 5.2-1.7 10.4-1.7 15.7 0 41.3 33.6 75 75 75 6 0 12.1-.7 17.9-2.2l-.7-3z"/>
  <path d="M-475.6 385.4c-.8 5.1-1.2 10.4-1.2 15.6 0 56.3 45.8 102.1 102.1 102.1 6 0 12-.5 17.8-1.6l-.5-3c-5.7 1-11.5 1.5-17.3 1.5-54.7 0-99.1-44.5-99.1-99.1 0-5.1.4-10.2 1.1-15.1l-2.9-.4z"/>
  <path d="M-501.9 385.4c-1 6.5-1.5 13-1.5 19.6 0 68.8 56 124.9 124.9 124.9 7.3 0 14.7-.6 21.8-1.9l-.5-3c-7 1.2-14.2 1.9-21.3 1.9-67.2 0-121.9-54.7-121.9-121.9 0-6.4.5-12.8 1.5-19.1l-3-.5z"/>
</svg>
