<svg xmlns="http://www.w3.org/2000/svg" viewBox="0 0 595.3 841.9">
  <path d="M-397.5 334.1c-26.7-30.8-63.8-49.4-104.5-52.3-84-6-157.2 57.4-163.2 141.4s57.4 157.2 141.4 163.2c3.7.3 7.4.4 11.1.4 16.7 0 33.2-2.7 49-8.1l-1-2.8c-19 6.5-38.8 9-59 7.6-82.3-5.9-144.5-77.7-138.6-160 5.9-82.3 77.7-144.5 160-138.6 39.9 2.9 76.3 21.1 102.4 51.3 26.2 30.2 39 68.8 36.2 108.7-1.6 22.7-8.1 44.1-19.4 63.7l2.6 1.5c11.4-20 18.1-41.8 19.8-64.9 3-40.9-10.1-80.3-36.8-111.1z"/>
  <path d="M-439.8 502.9l-6.5-13.3c-.1-1.1-.7-2.1-1.6-2.7l-6.2-6c-.3-.3-.7-.6-1.1-.7l-10-15.5-.2-.2c-2.6-2.8-10.7-1.5-17.1 4.2-6 5.4-7 10.5-7.1 13-.1 2.1.5 4 1.5 5l15.5 9.8c.2.6.5 1.2.9 1.6l6.2 6c.6.9 1.7 1.5 2.8 1.5l13.6 6 33.5 32.7c1.2 1.1 2.7 1.8 4.4 1.8h.1c1.7 0 3.3-.7 4.4-1.9s1.8-2.8 1.8-4.5-.7-3.3-1.9-4.4l-33-32.4zm-40.7-32c5.7-5.2 11.8-5.2 12.8-4.4l9.1 14.2c-.2.1-.3.2-.4.4l-8 7.6-15.7-15.5c.6-.8 1.4-1.6 2.2-2.3zm-6.1 10.8c0-1.1.4-3.4 2.1-6.2l15.3 15.1-2.6 2.5c-.1.1-.1.1-.1.2l-14.1-8.9c-.3-.3-.6-1.2-.6-2.7zm77.8 60.3c-.6.6-1.4 1-2.3 1-.9 0-1.7-.3-2.4-.9l-33.8-33.1-14.4-6.3-.4-.2h-.4c-.2 0-.3-.1-.4-.2l-.1-.2-6.5-6.3v-.1l.5-.8-.2-.1 12.4-11.9c.1-.1.3-.1.3-.1.1 0 .2 0 .3.1l6.5 6.3.2.1c.2.1.3.3.3.4v.4l7 14.4 33.4 32.7c.6.6 1 1.4 1 2.3-.1 1-.4 1.9-1 2.5zM-490.1 517.9l-2.2-2c-6.6 7.3-16.1 14.8-36 14.8v3c21.1 0 31.5-8.5 38.2-15.8zM-477.5 433c-.6.4-13.8 9.5-27.2 0l-1.7 2.4c5.1 3.6 10.2 4.8 14.7 4.8 9 0 15.8-4.7 16-4.8l-1.8-2.4zM-542.5 435.4l-1.7-2.4c-.6.4-13.8 9.5-27.2 0l-1.7 2.4c5.1 3.6 10.2 4.8 14.7 4.8 9 0 15.8-4.7 15.9-4.8zM-525.1 504.6c10.6 0 18.7-6.6 18.8-6.7l2.1-1.7-2.5-.9c-2.6-.9-3.9-1.6-5.1-2.1-1.3-.7-2.5-1.2-4.6-1.8-2.9-.8-4.5 0-5.8.6-.7.3-1.3.6-2 .6-.8 0-1.7-.3-2.7-.7-1.8-.6-4-1.4-6.3-.4-3 1.2-8.5 3.8-8.7 3.9l-2.1 1 1.8 1.5c5.8 5.1 11.8 6.7 17.1 6.7zm-7.1-10.3c1.3-.5 2.6-.1 4.1.5 1.2.4 2.4.9 3.7.9 1.4 0 2.5-.5 3.3-.9 1.1-.5 1.9-.9 3.7-.4 1.9.5 2.8 1 4.1 1.6.8.4 1.6.8 2.8 1.3-4.7 3-16.2 8.4-28.2-.1 2-1 4.7-2.2 6.5-2.9zM-497.5 356.8c.3 1.5 2.3 2.8 8.3 6.1 5 2.8 11.3 6.3 14.9 9.9 12.9 12.8 16.8 32.5 16.2 41.9-.7 10.8.1 20.5.1 20.6l.4 5.3 2.4-4.7c.1-.2.6-1.2 1.3-2.7 2.7-.3 6.3-.1 7.2 1.7 1.6 3.6-.2 9.9-5 17.2l2.5 1.6c5.4-8.4 7.3-15.5 5.3-20.1-1.4-3.2-5.5-3.8-8.5-3.6 4.3-10 12.1-31 10.3-48.9-2.9-27.8-15.8-42.2-26.1-49.3-11.2-7.8-21.6-8.9-22.1-8.9l-3.3-.3 2 2.7c.3.5 8.4 11.8-5.4 30.1-.5.3-.6.8-.5 1.4zm9.8-30.5c3.8.9 10.7 3 17.9 8 14.2 9.9 22.5 25.7 24.7 47.1 1.8 17.1-6 37.9-10.1 47.6-.1-3.7-.1-8.7.2-14 .6-10.3-3.4-30.6-17-44.2-3.9-3.8-10.3-7.5-15.5-10.4-2.5-1.4-5.4-3-6.5-4 10.4-14.5 8.3-25.2 6.3-30.1z"/>
  <path d="M-501.6 320.6c-17.1-10.2-55.8-3.5-75.3 13-19.8 16.7-22.8 56.8-23.2 73.3-.3 14.3 5 28.2 5.2 28.7l2 5 .9-5.3c0-.1 1.1-6.2 3-11.4 2.6-7.3 2.9-10.6 3.3-14.4.3-2.7.5-5.8 1.8-11.1 3.5-14.4 8.4-23.3 15.7-29 7.3-5.7 16.4-6.6 27.8-7.9 1.7-.2 3.5-.4 5.3-.6 14-1.7 30-3 30.1-3l.7-.1.4-.5c.5-.6 11.5-15.6 9.1-27.3-.8-4-3.1-7.2-6.8-9.4zm-4.3 34.4c-3.2.3-17.1 1.5-29.5 3-1.8.2-3.6.4-5.3.6-11.9 1.3-21.3 2.3-29.3 8.5-10.2 7.8-14.3 20.5-16.8 30.7-1.3 5.5-1.6 8.7-1.9 11.5-.4 3.7-.6 6.7-3.1 13.6-.8 2.2-1.4 4.5-1.9 6.5-1.5-5.3-3.5-13.8-3.3-22.4.3-12.5 2.8-54.7 22.2-71.1 13.3-11.2 34.5-17 51.4-17 8.3 0 15.7 1.4 20.5 4.3 3 1.8 4.8 4.2 5.4 7.5 1.6 9.2-6.5 21.6-8.4 24.3z"/>
</svg>
