<svg xmlns="http://www.w3.org/2000/svg" viewBox="0 0 595.3 841.9">
  <path d="M-549.7 447.5c-16.9-30.5-23.2-66.9-15.4-103.6.6-2.8 1.3-5.5 2-8.2 31.5.5 37.3 13.2 42.4 24.4 4.1 9 8 17.5 23.8 17.5 16 0 20.8-8.7 25.9-17.9 6.2-11.2 13.2-24 44-24 16.9 0 25.2 4.1 33.9 8.3 8.6 4.3 17.6 8.7 35.2 8.7s26.6-4.4 35.2-8.7c8.7-4.3 17-8.3 33.9-8.3v-3c-17.6 0-26.6 4.4-35.2 8.7-8.7 4.3-17 8.3-33.9 8.3s-25.2-4.1-33.9-8.3c-8.6-4.3-17.6-8.7-35.2-8.7-32.6 0-40.1 13.6-46.6 25.6-5 9.1-9 16.3-23.2 16.3-13.9 0-17.1-6.9-21.1-15.7-5.2-11.3-11.6-25.3-44.3-26.1 3.2-10.7 7.5-20.9 12.7-30.4 8.3 1.5 13.9 4.3 19.8 7.2 1.3.6 2.6 1.3 3.9 1.9l1.3-2.7c-1.3-.6-2.6-1.2-3.9-1.9-5.6-2.8-11.4-5.6-19.6-7.2 31.7-54.2 95.7-84.7 160.5-70.9 30.8 6.6 58.2 22.3 79.3 45.4l2.2-2c-21.5-23.6-49.5-39.6-80.9-46.3-82.3-17.5-163.6 35.2-181.1 117.5-10.5 49 4 97.7 34.8 132.7v.5h.4c20.9 23.5 49.2 40.9 82.2 47.9 10.9 2.3 21.9 3.5 32.7 3.5 21.9 0 43.4-4.7 63.5-13.9 29.7-13.6 53.7-35.9 69.4-64.3l1.2-2.2h-265.9zm99.7 74c-31.5-6.7-58.5-22.9-78.8-45h221.1c-35 38.7-88.6 56.4-142.3 45zm144.9-48h-226.4c-6.2-7.1-11.8-14.9-16.5-23h259.2c-4.8 8.3-10.2 16-16.3 23z"/>
  <path d="M-356.4 315.2c-16.9 0-25.2-4.1-33.9-8.4-8.6-4.3-17.6-8.7-35.2-8.7s-26.6 4.4-35.2 8.7c-2.8 1.4-5.7 2.8-8.9 4.1l1.1 2.8c3.3-1.3 6.2-2.7 9.1-4.2 8.7-4.3 17-8.3 33.9-8.3s25.2 4.1 33.9 8.4c8.6 4.3 17.6 8.7 35.2 8.7s26.6-4.4 35.2-8.7c6.6-3.2 12.7-6.3 22.6-7.6l-.4-3c-10.4 1.4-17.1 4.7-23.5 7.9-8.7 4.3-17 8.3-33.9 8.3zM-550.8 402.6c0 4.6 3.7 8.3 8.3 8.3s8.3-3.7 8.3-8.3-3.7-8.3-8.3-8.3-8.3 3.7-8.3 8.3zm13.6 0c0 2.9-2.4 5.3-5.3 5.3s-5.3-2.4-5.3-5.3 2.4-5.3 5.3-5.3 5.3 2.3 5.3 5.3zM-463.8 402.6c0 4.6 3.7 8.3 8.3 8.3s8.3-3.7 8.3-8.3-3.7-8.3-8.3-8.3-8.3 3.7-8.3 8.3zm13.7 0c0 2.9-2.4 5.3-5.3 5.3s-5.3-2.4-5.3-5.3 2.4-5.3 5.3-5.3 5.3 2.3 5.3 5.3zM-520.7 415.1c-4.6 0-8.3 3.7-8.3 8.3 0 4.6 3.7 8.3 8.3 8.3 4.6 0 8.3-3.7 8.3-8.3 0-4.6-3.7-8.3-8.3-8.3zm0 13.7c-2.9 0-5.3-2.4-5.3-5.3s2.4-5.3 5.3-5.3 5.3 2.4 5.3 5.3-2.4 5.3-5.3 5.3zM-477.2 415.1c-4.6 0-8.3 3.7-8.3 8.3 0 4.6 3.7 8.3 8.3 8.3 4.6 0 8.3-3.7 8.3-8.3.1-4.6-3.7-8.3-8.3-8.3zm0 13.7c-2.9 0-5.3-2.4-5.3-5.3s2.4-5.3 5.3-5.3 5.3 2.4 5.3 5.3c.1 2.9-2.3 5.3-5.3 5.3zM-433.6 415.1c-4.6 0-8.3 3.7-8.3 8.3 0 4.6 3.7 8.3 8.3 8.3s8.3-3.7 8.3-8.3c0-4.6-3.7-8.3-8.3-8.3zm0 13.7c-2.9 0-5.3-2.4-5.3-5.3s2.4-5.3 5.3-5.3 5.3 2.4 5.3 5.3-2.4 5.3-5.3 5.3zM-376.7 402.6c0 4.6 3.7 8.3 8.3 8.3s8.3-3.7 8.3-8.3-3.7-8.3-8.3-8.3-8.3 3.7-8.3 8.3zm13.7 0c0 2.9-2.4 5.3-5.3 5.3s-5.3-2.4-5.3-5.3 2.4-5.3 5.3-5.3 5.3 2.3 5.3 5.3zM-420.2 402.6c0 4.6 3.7 8.3 8.3 8.3s8.3-3.7 8.3-8.3-3.7-8.3-8.3-8.3-8.3 3.7-8.3 8.3zm13.6 0c0 2.9-2.4 5.3-5.3 5.3s-5.3-2.4-5.3-5.3 2.4-5.3 5.3-5.3 5.3 2.3 5.3 5.3zM-507.3 402.6c0 4.6 3.7 8.3 8.3 8.3s8.3-3.7 8.3-8.3-3.7-8.3-8.3-8.3-8.3 3.7-8.3 8.3zm13.7 0c0 2.9-2.4 5.3-5.3 5.3s-5.3-2.4-5.3-5.3 2.4-5.3 5.3-5.3 5.3 2.3 5.3 5.3zM-333.1 402.6c0 4.6 3.7 8.3 8.3 8.3s8.3-3.7 8.3-8.3-3.7-8.3-8.3-8.3-8.3 3.7-8.3 8.3zm13.6 0c0 2.9-2.4 5.3-5.3 5.3s-5.3-2.4-5.3-5.3 2.4-5.3 5.3-5.3 5.3 2.3 5.3 5.3zM-398.4 423.4c0 4.6 3.7 8.3 8.3 8.3s8.3-3.7 8.3-8.3c0-4.6-3.7-8.3-8.3-8.3s-8.3 3.7-8.3 8.3zm13.7 0c0 2.9-2.4 5.3-5.3 5.3s-5.3-2.4-5.3-5.3 2.4-5.3 5.3-5.3 5.3 2.4 5.3 5.3zM-354.8 423.4c0 4.6 3.7 8.3 8.3 8.3s8.3-3.7 8.3-8.3c0-4.6-3.7-8.3-8.3-8.3s-8.3 3.7-8.3 8.3zm13.6 0c0 2.9-2.4 5.3-5.3 5.3s-5.3-2.4-5.3-5.3 2.4-5.3 5.3-5.3 5.3 2.4 5.3 5.3zM-311.3 423.4c0 4.6 3.7 8.3 8.3 8.3s8.3-3.7 8.3-8.3c0-4.6-3.7-8.3-8.3-8.3s-8.3 3.7-8.3 8.3zm13.7 0c0 2.9-2.4 5.3-5.3 5.3s-5.3-2.4-5.3-5.3 2.4-5.3 5.3-5.3 5.3 2.4 5.3 5.3zM-478.4 276.1l-4.9 2.7c-.4.2-10.8 6.2-15 41.4-.8 7-1.5 10.1-2.4 13.7-.5 2-.8 3-1.4 5.1l-.7 2.4c-.9 3.1-.7 6.3.5 8.4.7 1.2 1.7 2 2.8 2.4.6.2 1.2.2 1.8.2 2.6 0 5.3-1.5 6.5-5.8.6-2.2.7-6.2.3-8-6.2-31.6 9.3-57.3 9.5-57.6l3-4.9zm-15.6 69.6c-1.1 4-3.6 3.7-4.6 3.5-.5-.1-.8-.6-1-.9-.8-1.4-.9-3.8-.2-6.1l.7-2.4c.6-2 .9-3.1 1.4-5.1 1-3.7 1.6-6.9 2.5-14.1 0-.2 0-.3.1-.5-.2 5.9.2 12.3 1.5 19 .1 1.4 0 4.9-.4 6.6z"/>
</svg>
