<svg viewBox="-900 233 306 306" version="1.1" xmlns="http://www.w3.org/2000/svg" xmlns:xlink="http://www.w3.org/1999/xlink">
  <g id="services-procedure" stroke="none" stroke-width="1" fill="none" fill-rule="evenodd" transform="translate(-900.000000, 233.000000)">
    <path d="M305.3,139.2 L303.3,139.4 L303.3,139.2 L229.8,139.2 L229.8,79.2 L226.8,79.2 L226.8,239.3 C226.8,244.9 222.2,249.5 216.6,249.5 L209.9,249.5 C204.3,249.5 199.7,244.9 199.7,239.3 L199.7,79.1 L196.7,79.1 L196.7,239.2 C196.7,246.5 202.6,252.4 209.9,252.4 L216.6,252.4 C223.9,252.4 229.8,246.5 229.8,239.2 L229.8,142.1 L302.6,142.1 C306.3,190.8 286.1,238.1 248.3,269.1 C184.5,321.4 90,312.1 37.6,248.3 C13,218.3 1.1,180.6 4.1,142 L74.1,142 L74.1,239.1 C74.1,246.4 80,252.3 87.3,252.3 L94,252.3 C101.3,252.3 107.2,246.4 107.2,239.1 L107.2,79.1 L104.2,79.1 L104.2,239.2 C104.2,244.8 99.6,249.4 94,249.4 L87.3,249.4 C81.7,249.4 77.1,244.8 77.1,239.2 L77.1,222.1 L90.7,222.1 L90.7,219.1 L77,219.1 L77,206.1 L90.6,206.1 L90.6,203.1 L77,203.1 L77,190.1 L90.6,190.1 L90.6,187.1 L77,187.1 L77,174.1 L90.6,174.1 L90.6,171.1 L77,171.1 L77,158.1 L90.6,158.1 L90.6,155.1 L77,155.1 L77,142.1 L90.6,142.1 L90.6,139.1 L77,139.1 L77,126.1 L90.6,126.1 L90.6,123.1 L77,123.1 L77,79.1 L74,79.1 L74,139.1 L4.3,139.1 L4.3,138.7 C8.2,98.9 27.4,63 58.3,37.7 C96.8,6.1 148.3,-4.2 196.1,10 L197,7.1 C148.2,-7.4 95.7,3.1 56.4,35.4 C24.9,61.3 5.3,97.9 1.3,138.4 C-2.7,178.9 9.3,218.7 35.2,250.2 C65.3,286.9 109.2,306 153.4,306 C187.5,306 221.8,294.7 250.1,271.4 C289.4,239.3 310.1,189.8 305.3,139.2 L305.3,139.2 Z" id="Shape" fill="#000000"></path>
    <path d="M75.4,64.2 C71.5,64.2 68.4,67.3 68.4,71.2 L68.4,71.9 C68.4,75.8 71.5,78.9 75.4,78.9 L105.8,78.9 C109.7,78.9 112.8,75.8 112.8,71.9 L112.8,71.2 C112.8,67.3 109.7,64.2 105.8,64.2 L75.4,64.2 L75.4,64.2 Z M109.8,71.2 L109.8,71.9 C109.8,74.1 108,75.9 105.8,75.9 L75.4,75.9 C73.2,75.9 71.4,74.1 71.4,71.9 L71.4,71.2 C71.4,69 73.2,67.2 75.4,67.2 L105.8,67.2 C108,67.2 109.8,69 109.8,71.2 L109.8,71.2 Z M135.3,79.1 L135.3,239.2 C135.3,246.5 141.2,252.4 148.5,252.4 L155.2,252.4 C162.5,252.4 168.4,246.5 168.4,239.2 L168.4,79.1 L165.4,79.1 L165.4,239.2 C165.4,244.8 160.8,249.4 155.2,249.4 L148.5,249.4 C142.9,249.4 138.3,244.8 138.3,239.2 L138.3,79.1 L135.3,79.1 L135.3,79.1 Z M174.1,72 L174.1,71.3 C174.1,67.4 171,64.3 167.1,64.3 L136.7,64.3 C132.8,64.3 129.7,67.4 129.7,71.3 L129.7,72 C129.7,75.9 132.8,79 136.7,79 L167.1,79 C171,79 174.1,75.8 174.1,72 L174.1,72 Z M171.1,72 C171.1,74.2 169.3,76 167.1,76 L136.7,76 C134.5,76 132.7,74.2 132.7,72 L132.7,71.3 C132.7,69.1 134.5,67.3 136.7,67.3 L167.1,67.3 C169.3,67.3 171.1,69.1 171.1,71.3 L171.1,72 L171.1,72 Z M191,71.2 L191,71.9 C191,75.8 194.1,78.9 198,78.9 L228.4,78.9 C232.3,78.9 235.4,75.8 235.4,71.9 L235.4,71.2 C235.4,67.3 232.3,64.2 228.4,64.2 L198,64.2 C194.1,64.2 191,67.4 191,71.2 L191,71.2 Z M194,71.2 C194,69 195.8,67.2 198,67.2 L228.4,67.2 C230.6,67.2 232.4,69 232.4,71.2 L232.4,71.9 C232.4,74.1 230.6,75.9 228.4,75.9 L198,75.9 C195.8,75.9 194,74.1 194,71.9 L194,71.2 L194,71.2 Z" id="Shape" fill="#000000"></path>
  </g>
</svg>
