<?xml version="1.0" encoding="utf-8"?>
<!-- Generator: Adobe Illustrator 19.1.0, SVG Export Plug-In . SVG Version: 6.00 Build 0)  -->
<svg version="1.1" id="Слой_1" xmlns="http://www.w3.org/2000/svg" xmlns:xlink="http://www.w3.org/1999/xlink" x="0px" y="0px"
	 viewBox="0 0 595.3 841.9" style="enable-background:new 0 0 595.3 841.9;" xml:space="preserve">
<style type="text/css">
	.st0{fill:#FFFFFF;}
</style>
<g>
	<path class="st0" d="M-549.7,447.5c-16.9-30.5-23.2-66.9-15.4-103.6c0.6-2.8,1.3-5.5,2-8.2c31.5,0.5,37.3,13.2,42.4,24.4
		c4.1,9,8,17.5,23.8,17.5c16,0,20.8-8.7,25.9-17.9c6.2-11.2,13.2-24,44-24c16.9,0,25.2,4.1,33.9,8.3c8.6,4.3,17.6,8.7,35.2,8.7
		s26.6-4.4,35.2-8.7c8.7-4.3,17-8.3,33.9-8.3v-3c-17.6,0-26.6,4.4-35.2,8.7c-8.7,4.3-17,8.3-33.9,8.3c-16.9,0-25.2-4.1-33.9-8.3
		c-8.6-4.3-17.6-8.7-35.2-8.7c-32.6,0-40.1,13.6-46.6,25.6c-5,9.1-9,16.3-23.2,16.3c-13.9,0-17.1-6.9-21.1-15.7
		c-5.2-11.3-11.6-25.3-44.3-26.1c3.2-10.7,7.5-20.9,12.7-30.4c8.3,1.5,13.9,4.3,19.8,7.2c1.3,0.6,2.6,1.3,3.9,1.9l1.3-2.7
		c-1.3-0.6-2.6-1.2-3.9-1.9c-5.6-2.8-11.4-5.6-19.6-7.2c31.7-54.2,95.7-84.7,160.5-70.9c30.8,6.6,58.2,22.3,79.3,45.4l2.2-2
		c-21.5-23.6-49.5-39.6-80.9-46.3c-82.3-17.5-163.6,35.2-181.1,117.5c-10.5,49,4,97.7,34.8,132.7v0.5h0.4
		c20.9,23.5,49.2,40.9,82.2,47.9c10.9,2.3,21.9,3.5,32.7,3.5c21.9,0,43.4-4.7,63.5-13.9c29.7-13.6,53.7-35.9,69.4-64.3l1.2-2.2
		H-549.7z M-450,521.5c-31.5-6.7-58.5-22.9-78.8-45h221.1C-342.7,515.2-396.3,532.9-450,521.5z M-305.1,473.5h-226.4
		c-6.2-7.1-11.8-14.9-16.5-23h259.2C-293.6,458.8-299,466.5-305.1,473.5z"/>
	<path class="st0" d="M-356.4,315.2c-16.9,0-25.2-4.1-33.9-8.4c-8.6-4.3-17.6-8.7-35.2-8.7c-17.6,0-26.6,4.4-35.2,8.7
		c-2.8,1.4-5.7,2.8-8.9,4.1l1.1,2.8c3.3-1.3,6.2-2.7,9.1-4.2c8.7-4.3,17-8.3,33.9-8.3c16.9,0,25.2,4.1,33.9,8.4
		c8.6,4.3,17.6,8.7,35.2,8.7s26.6-4.4,35.2-8.7c6.6-3.2,12.7-6.3,22.6-7.6l-0.4-3c-10.4,1.4-17.1,4.7-23.5,7.9
		C-331.2,311.2-339.5,315.2-356.4,315.2z"/>
	<path class="st0" d="M-550.8,402.6c0,4.6,3.7,8.3,8.3,8.3s8.3-3.7,8.3-8.3s-3.7-8.3-8.3-8.3S-550.8,398-550.8,402.6z M-537.2,402.6
		c0,2.9-2.4,5.3-5.3,5.3s-5.3-2.4-5.3-5.3s2.4-5.3,5.3-5.3S-537.2,399.6-537.2,402.6z"/>
	<path class="st0" d="M-463.8,402.6c0,4.6,3.7,8.3,8.3,8.3s8.3-3.7,8.3-8.3s-3.7-8.3-8.3-8.3S-463.8,398-463.8,402.6z M-450.1,402.6
		c0,2.9-2.4,5.3-5.3,5.3s-5.3-2.4-5.3-5.3s2.4-5.3,5.3-5.3S-450.1,399.6-450.1,402.6z"/>
	<path class="st0" d="M-520.7,415.1c-4.6,0-8.3,3.7-8.3,8.3c0,4.6,3.7,8.3,8.3,8.3c4.6,0,8.3-3.7,8.3-8.3
		C-512.4,418.8-516.1,415.1-520.7,415.1z M-520.7,428.8c-2.9,0-5.3-2.4-5.3-5.3c0-2.9,2.4-5.3,5.3-5.3c2.9,0,5.3,2.4,5.3,5.3
		C-515.4,426.4-517.8,428.8-520.7,428.8z"/>
	<path class="st0" d="M-477.2,415.1c-4.6,0-8.3,3.7-8.3,8.3c0,4.6,3.7,8.3,8.3,8.3c4.6,0,8.3-3.7,8.3-8.3
		C-468.8,418.8-472.6,415.1-477.2,415.1z M-477.2,428.8c-2.9,0-5.3-2.4-5.3-5.3c0-2.9,2.4-5.3,5.3-5.3c2.9,0,5.3,2.4,5.3,5.3
		C-471.8,426.4-474.2,428.8-477.2,428.8z"/>
	<path class="st0" d="M-433.6,415.1c-4.6,0-8.3,3.7-8.3,8.3c0,4.6,3.7,8.3,8.3,8.3s8.3-3.7,8.3-8.3
		C-425.3,418.8-429,415.1-433.6,415.1z M-433.6,428.8c-2.9,0-5.3-2.4-5.3-5.3c0-2.9,2.4-5.3,5.3-5.3s5.3,2.4,5.3,5.3
		C-428.3,426.4-430.7,428.8-433.6,428.8z"/>
	<path class="st0" d="M-376.7,402.6c0,4.6,3.7,8.3,8.3,8.3s8.3-3.7,8.3-8.3s-3.7-8.3-8.3-8.3S-376.7,398-376.7,402.6z M-363,402.6
		c0,2.9-2.4,5.3-5.3,5.3s-5.3-2.4-5.3-5.3s2.4-5.3,5.3-5.3S-363,399.6-363,402.6z"/>
	<path class="st0" d="M-420.2,402.6c0,4.6,3.7,8.3,8.3,8.3s8.3-3.7,8.3-8.3s-3.7-8.3-8.3-8.3S-420.2,398-420.2,402.6z M-406.6,402.6
		c0,2.9-2.4,5.3-5.3,5.3s-5.3-2.4-5.3-5.3s2.4-5.3,5.3-5.3S-406.6,399.6-406.6,402.6z"/>
	<path class="st0" d="M-507.3,402.6c0,4.6,3.7,8.3,8.3,8.3s8.3-3.7,8.3-8.3s-3.7-8.3-8.3-8.3S-507.3,398-507.3,402.6z M-493.6,402.6
		c0,2.9-2.4,5.3-5.3,5.3s-5.3-2.4-5.3-5.3s2.4-5.3,5.3-5.3S-493.6,399.6-493.6,402.6z"/>
	<path class="st0" d="M-333.1,402.6c0,4.6,3.7,8.3,8.3,8.3s8.3-3.7,8.3-8.3s-3.7-8.3-8.3-8.3S-333.1,398-333.1,402.6z M-319.5,402.6
		c0,2.9-2.4,5.3-5.3,5.3s-5.3-2.4-5.3-5.3s2.4-5.3,5.3-5.3S-319.5,399.6-319.5,402.6z"/>
	<path class="st0" d="M-398.4,423.4c0,4.6,3.7,8.3,8.3,8.3s8.3-3.7,8.3-8.3c0-4.6-3.7-8.3-8.3-8.3S-398.4,418.8-398.4,423.4z
		 M-384.7,423.4c0,2.9-2.4,5.3-5.3,5.3s-5.3-2.4-5.3-5.3c0-2.9,2.4-5.3,5.3-5.3S-384.7,420.5-384.7,423.4z"/>
	<path class="st0" d="M-354.8,423.4c0,4.6,3.7,8.3,8.3,8.3s8.3-3.7,8.3-8.3c0-4.6-3.7-8.3-8.3-8.3S-354.8,418.8-354.8,423.4z
		 M-341.2,423.4c0,2.9-2.4,5.3-5.3,5.3s-5.3-2.4-5.3-5.3c0-2.9,2.4-5.3,5.3-5.3S-341.2,420.5-341.2,423.4z"/>
	<path class="st0" d="M-311.3,423.4c0,4.6,3.7,8.3,8.3,8.3s8.3-3.7,8.3-8.3c0-4.6-3.7-8.3-8.3-8.3S-311.3,418.8-311.3,423.4z
		 M-297.6,423.4c0,2.9-2.4,5.3-5.3,5.3s-5.3-2.4-5.3-5.3c0-2.9,2.4-5.3,5.3-5.3S-297.6,420.5-297.6,423.4z"/>
	<path class="st0" d="M-478.4,276.1l-4.9,2.7c-0.4,0.2-10.8,6.2-15,41.4c-0.8,7-1.5,10.1-2.4,13.7c-0.5,2-0.8,3-1.4,5.1l-0.7,2.4
		c-0.9,3.1-0.7,6.3,0.5,8.4c0.7,1.2,1.7,2,2.8,2.4c0.6,0.2,1.2,0.2,1.8,0.2c2.6,0,5.3-1.5,6.5-5.8v0c0.6-2.2,0.7-6.2,0.3-8
		c-6.2-31.6,9.3-57.3,9.5-57.6L-478.4,276.1z M-494,345.7L-494,345.7c-1.1,4-3.6,3.7-4.6,3.5c-0.5-0.1-0.8-0.6-1-0.9
		c-0.8-1.4-0.9-3.8-0.2-6.1l0.7-2.4c0.6-2,0.9-3.1,1.4-5.1c1-3.7,1.6-6.9,2.5-14.1c0-0.2,0-0.3,0.1-0.5c-0.2,5.9,0.2,12.3,1.5,19
		C-493.5,340.5-493.6,344-494,345.7z"/>
</g>
</svg>
