<svg viewBox="-535 252 307 306" version="1.1" xmlns="http://www.w3.org/2000/svg" xmlns:xlink="http://www.w3.org/1999/xlink">
  <g id="services-uzi" stroke="none" stroke-width="1" fill="none" fill-rule="evenodd" transform="translate(-535.000000, 252.000000)">
    <path d="M288.7,82.3 L286,83.7 C297.1,104.9 303,128.9 303,153.1 C303,235.6 235.9,302.8 153.3,302.8 C70.8,302.8 3.6,235.7 3.6,153.1 C3.6,70.6 70.7,3.4 153.3,3.4 C181.4,3.4 208.8,11.2 232.5,26 L234.1,23.5 C209.9,8.4 182,0.4 153.3,0.4 C69.1,0.4 0.6,68.9 0.6,153.1 C0.6,237.3 69.1,305.8 153.3,305.8 C237.5,305.8 306,237.3 306,153.1 C306.1,128.4 300.1,103.9 288.7,82.3 L288.7,82.3 Z" id="Shape" fill="#000000"></path>
    <path d="M227.5,71.6 L222.8,70.2 C217.3,68.6 211.4,70.1 207.4,74 L151.3,124.5 L133.7,121.2 C129.3,120.5 124.7,122 121.6,125.2 L113.3,133.5 C111,135.8 110.1,139 110.7,142.1 C113.5,156.1 120.3,168.8 130.4,178.8 C140.5,188.9 153.2,195.7 167.1,198.5 C167.7,198.6 168.4,198.7 169,198.7 C171.5,198.7 173.9,197.7 175.7,195.9 L184,187.6 C187.2,184.4 188.6,179.9 187.9,175.4 L184.6,157.9 L235,101.9 C239,97.9 240.5,91.9 238.9,86.5 L237.5,81.8 C236.7,79.1 236.1,77.3 235.4,76 L262.7,48.7 L260.6,46.6 L233.3,73.9 C232,73 230.2,72.4 227.5,71.6 L227.5,71.6 Z M185,175.9 C185.5,179.4 184.4,182.9 181.9,185.4 L173.6,193.7 C172.1,195.2 169.8,195.9 167.7,195.5 C154.3,192.8 142.2,186.3 132.5,176.7 C122.9,167.1 116.3,154.9 113.7,141.5 C113.3,139.4 113.9,137.1 115.5,135.6 L123.8,127.3 C125.9,125.2 128.7,124.1 131.6,124.1 C132.2,124.1 132.7,124.1 133.3,124.2 L151.1,127.6 L181.7,158.2 L185,175.9 L185,175.9 Z M232.9,99.8 L183,155.2 L154,126.2 L209.5,76.3 C212.8,73 217.5,71.8 221.9,73.2 L226.6,74.6 C229.8,75.6 231.5,76.1 232.3,76.9 C233.2,77.8 233.6,79.4 234.6,82.6 L236,87.3 C237.4,91.7 236.2,96.4 232.9,99.8 L232.9,99.8 Z" id="Shape" fill="#000000"></path>
    <path d="M177.6,218.9 C172,220.3 166.2,221 160.4,221 C120.7,221 88.4,188.7 88.4,149 C88.4,144 88.9,138.9 90,134 L87.1,133.4 C86,138.6 85.4,143.8 85.4,149.1 C85.4,190.4 119,224.1 160.4,224.1 C166.4,224.1 172.5,223.4 178.3,221.9 L177.6,218.9 L177.6,218.9 Z" id="Shape" fill="#000000"></path>
    <path d="M59.4,133.4 C58.6,138.5 58.2,143.8 58.2,149 C58.2,205.3 104,251.1 160.3,251.1 C166.3,251.1 172.3,250.6 178.1,249.5 L177.6,246.5 C171.9,247.5 166.1,248 160.3,248 C105.6,248 61.2,203.5 61.2,148.9 C61.2,143.8 61.6,138.7 62.3,133.8 L59.4,133.4 L59.4,133.4 Z" id="Shape" fill="#000000"></path>
    <path d="M33.1,133.4 C32.1,139.9 31.6,146.4 31.6,153 C31.6,221.8 87.6,277.9 156.5,277.9 C163.8,277.9 171.2,277.3 178.3,276 L177.8,273 C170.8,274.2 163.6,274.9 156.5,274.9 C89.3,274.9 34.6,220.2 34.6,153 C34.6,146.6 35.1,140.2 36.1,133.9 L33.1,133.4 L33.1,133.4 Z" id="Shape" fill="#000000"></path>
  </g>
</svg>
