<svg viewBox="-801 220 306 307" version="1.1" xmlns="http://www.w3.org/2000/svg" xmlns:xlink="http://www.w3.org/1999/xlink">
  <g id="services-venereology" stroke="none" stroke-width="1" fill="none" fill-rule="evenodd" transform="translate(-801.000000, 220.000000)">
    <path d="M302.9,157.4 C300.7,239.9 231.7,305.2 149.2,303 C66.7,300.8 1.4,231.8 3.6,149.3 C5.8,66.8 74.8,1.5 157.3,3.7 C181.1,4.3 203.7,10.4 224.5,21.7 L225.9,19.1 C204.7,7.6 181.6,1.4 157.3,0.7 C73.2,-1.6 2.8,65 0.5,149.2 C-1.8,233.4 64.8,303.7 149,306 C150.4,306 151.8,306.1 153.2,306.1 C235.5,306.1 303.5,240.3 305.8,157.6 L302.9,157.4 L302.9,157.4 Z" id="Shape" fill="#000000"></path>
    <path d="M223.2,128.7 C213.5,119.4 200.4,113.7 186,113.7 C177.8,113.7 170.1,115.5 163.2,118.8 C155.6,98.3 135.8,83.6 112.7,83.6 C83,83.6 58.9,107.8 58.9,137.4 C58.9,166.6 82.2,190.4 111.2,191.2 L111.2,217.4 L92,217.4 L92,220.4 L111.1,220.4 L111.1,233.6 L114.1,233.6 L114.1,220.4 L133.2,220.4 L133.2,217.4 L114.1,217.4 L114.1,191.2 C121.7,191 128.9,189.2 135.4,186.1 C143,206.6 162.8,221.3 185.9,221.3 C215.6,221.3 239.7,197.1 239.7,167.5 C239.7,153.3 234.2,140.4 225.2,130.8 L259.7,96.3 L259.7,124.4 L262.7,124.4 L262.7,91.2 L229.5,91.2 L229.5,94.2 L257.6,94.2 L223.2,128.7 L223.2,128.7 Z M112.6,188.3 C84.6,188.3 61.8,165.5 61.8,137.5 C61.8,109.5 84.6,86.7 112.6,86.7 C134.6,86.7 153.3,100.7 160.4,120.2 C143.6,129.3 132.1,147.1 132.1,167.6 C132.1,173.1 132.9,178.4 134.5,183.4 C127.8,186.5 120.4,188.3 112.6,188.3 L112.6,188.3 Z M163.4,137.5 C163.4,156.6 152.8,173.3 137.1,182 C135.7,177.4 135,172.6 135,167.6 C135,148.5 145.6,131.8 161.3,123.1 C162.7,127.6 163.4,132.5 163.4,137.5 L163.4,137.5 Z M185.9,218.4 C163.9,218.4 145.2,204.4 138.1,184.9 C154.9,175.8 166.4,158 166.4,137.5 C166.4,132 165.6,126.7 164,121.7 C170.6,118.5 178,116.7 185.9,116.7 C213.9,116.7 236.7,139.5 236.7,167.5 C236.7,195.5 214,218.4 185.9,218.4 L185.9,218.4 Z" id="Shape" fill="#000000"></path>
  </g>
</svg>
