<svg xmlns="http://www.w3.org/2000/svg" viewBox="0 0 595.3 841.9">
  <path d="M-287.6 477.7l-.4 4c5.5.5 14 1.6 15.5 2.3.4.2.8.3 1.3.3.4 0 .9-.1 1.3-.3.8-.4 1.4-1.1 1.7-1.9.6-2 .5-6.3-2.2-9.5-1.9-2.2-5.7-4.7-13.2-3.8l.5 4c4.5-.6 7.8.3 9.6 2.4 1.4 1.6 1.6 3.6 1.6 4.9-3.9-1.2-13.6-2.2-15.7-2.4zM-167 316.5l-75 84.3c-2.4 2.5-8.2 17.4-5.1 24.5l-5 5c-3.5-1.8-5.8-.3-7.2 1.2L-270 442c-1.1 1.1-4.2 5.1 2 11.3 2.1 2.1 4.1 3.3 6 3.6.4.1.7.1 1.1.1 1.6 0 3-.6 4.2-1.7l10.7-10.7c1.4-1.4 3-3.7 1.2-7.2l5-5c7.1 3.1 22-2.7 24.5-5.1l84.3-75.1c3.7-3.4 5.9-8 6-13 .1-5-1.8-9.8-5.3-13.3l-10.2-10.2c-3.6-3.6-8.3-5.4-13.3-5.3-5.2.2-9.9 2.3-13.2 6.1zm13.1-2.1c3.9-.1 7.6 1.4 10.4 4.1l10.2 10.2c2.8 2.8 4.2 6.5 4.1 10.4-.1 3.9-1.8 7.5-4.7 10.1l-84.3 75.1-.1.1c-2 1.9-16.9 7.1-20.8 3.9l-1.4-1.2-9.7 9.7 1 1.4c1.5 2.1 1 2.6.2 3.5l-10.7 10.7c-1.6 1.6-4.2-.5-5.6-2-1.4-1.4-3.6-4-2-5.6l10.7-10.7c.5-.5.8-.8 1.4-.8.5 0 1.1.3 2.1 1l1.4 1 9.7-9.7-1.2-1.4c-3.2-3.9 2-18.8 3.9-20.8l75.1-84.4c2.8-2.8 6.4-4.5 10.3-4.6z"/>
  <path d="M-127.6 392.4c-7.8 76.3-71.6 133.9-148.4 133.9-82.3 0-149.2-66.9-149.2-149.2 0-58.4 33.7-109 82.7-133.5.1.5.1 1.1.2 1.8.9 6.9 2.6 19.8 1.7 27.7-.3 2.7-.9 5.3-1.4 7.8-1.4 6.3-2.8 12.9.2 21.6 3.7 10.7 2.8 17.6 1.4 24.3-.8 4-2 8.6-3.4 14.5-.9 3.5-1.8 7.4-2.8 11.7-1.3 5.4-5.8 16.8-10.2 27.8-4.9 12.3-10 25.1-11.2 31-2.1 10.5-3 16.8-3.6 23.6-.6 6.2.4 10.2 1.4 14l.2.6c1 3.7 3.1 8.5 5.5 10.9 2.2 2.2 5.1 2.6 7.1 2.6.1 1.5.4 3.5 1.1 5.1 1 2.6 2.5 5.4 5.8 6.8 1.8.7 4.2.5 6 .2.1 1.3.2 2.8.4 3.7.4 1.7 1.5 4.2 3 5.7 2.5 2.5 5.5 3.5 8.9 3 1.1-.2 2.1-.4 3-.6.7-.2 1.3-.3 1.9-.6.2 2.1.7 4.7 2.1 6.7 3.1 4.2 7.8 4.8 11.6 4.8 5.4 0 11.7-4.2 13.2-11.1.3-1.6.6-3.2.7-4.7 1 8.8 6.7 13.6 16.9 14.1 12.5.7 24.1-7.4 27.5-19.1.9-3 1.3-6.5 1.4-10.5l-4-.1c-.1 3.6-.5 6.8-1.3 9.4-2.9 10-12.7 16.8-23.4 16.2-10.8-.6-12.7-6.3-13.1-10.6-.2-2.2 1.5-8.4 3-13.4 1.3-4.7 2.6-9.1 2.9-11.8.4-4.4-.8-6.9-1.9-8.2-1-1.1-2.3-1.8-3.6-1.8-1.1 0-2.2.4-3 1.3-1 1-1.5 2.5-1.4 4.1.1 1.5-.5 5-1 7l-.1.5c-.5 1.8-1.1 3.8-1.8 7.2-.7 3.2-.5 6.8-.4 9 0 .5.1 1 .1 1.3 0 1.3-.3 5.2-1.1 9.2-1 4.7-5.5 7.9-9.2 7.9-4.3 0-6.8-.9-8.4-3.1-1.4-1.9-1.5-5.8-1.3-7.4.1-.4.2-.8.4-1.1.2-.4.3-.9.4-1.2.1-.3.3-.7.4-1 .8-1.5 1.5-3.4 2.2-5.4.9-2.2 1.7-4.6 2.3-7.5.7-3.1 1.1-8.8 1.2-17 0-1.7.1-3.2.2-4.4.2-3 .3-4.4-.5-5.5-.8-1.1-2.3-1.5-3.5-1-.5.2-2.2 1.3-1.5 4.3.3 1.2.4 3.5.4 5.9 0 1.6.1 3.4.2 5.3.2 3.2-.6 11.9-2.6 18.6l-1.2 3c-.3.7-.6 1.4-.8 2.1-.2.4-.4.9-.5 1.4-.1.4-.3.7-.4 1.1-.3.6-.7 1.2-1.4 1.6-1 .5-2.4.9-4.6 1.2-2.1.3-4-.3-5.5-1.9-.7-.7-1.6-2.4-1.9-3.8-.2-.9-.3-3.1-.4-4.7.3-2 1-4.3 1.9-7.5.4-1.4.9-2.9 1.3-4.7 1.1-3.9 1.5-6.6 1.9-9.6.2-1.6.5-3.3.8-5.2 1.1-5.5 1.1-7.8 1.1-8.8 0-1.4-1.1-2.5-2-2.9-1-.5-2.2-.5-3 0-.5.4-1.4 1.2-1.2 3.1.3 2.4.2 10.8.1 15.1-.3 2.2-.7 4.4-1.5 7.2-.5 1.7-.9 3.3-1.3 4.7-.7 2.5-1.3 4.6-1.7 6.4-1.7.4-3.8.7-4.8.3-1.6-.7-2.6-1.9-3.6-4.5-.8-2.1-.9-5.3-.9-5.8.3-3 .3-5 .3-6.5 0-1.2 0-2.2.1-3.3.1-1.2.6-2.9 1-4.7.1-.4.3-1 .4-1.6.5-1.9 1-3.9 1.4-5.8.9-4.3 1.3-6.8-.6-8.4-1-.9-2.1-.7-2.8-.3-1.6 1-1.4 3.5-1 5.4.3 1.1-.2 5.1-.9 7.9 0 .1-.1.2-.1.3-.7 2.5-1.3 4.9-1.5 6.6-.2 1.3-.2 2.5-.2 3.8 0 1.2 0 2.7-.1 4.7-1.2 0-3.1-.2-4.3-1.5-1.5-1.5-3.4-5.4-4.4-9.1l-.2-.6c-1-3.6-1.9-7.1-1.3-12.6.7-6.6 1.5-12.8 3.6-23.2 1.1-5.5 6.1-18.1 11-30.3 4.7-11.7 9.1-22.7 10.4-28.4 1-4.3 2-8.2 2.8-11.7 1.5-5.9 2.6-10.5 3.4-14.6 1.5-7.3 2.5-14.8-1.6-26.4-2.7-7.7-1.5-13.1-.1-19.5.6-2.6 1.1-5.3 1.5-8.2.9-8.4-.8-21.6-1.7-28.7-.1-.9-.2-1.7-.3-2.3 1.8-1.1 7.5-4.1 23.2-9.3 9.2-2.5 18.8-4.2 28.6-4.9h2.6c1.9 15.4 6 23.2 11.1 33l1.3 2.6c6 11.5 6 15.6 6 19.7 0 2.4-.5 5-1.2 8-.5 2.3-1 5-1.4 8.1-.7 5.1-.3 16 .1 27.5.2 5 .4 10.1.4 14.6.1 6.7-.1 15.7-.3 24.3-.2 10.2-.5 19.8-.1 24.4.4 4.4 2.1 11 4 18 .7 2.6 1.4 5.4 2.1 7.9l3.9-1c-.6-2.6-1.4-5.3-2.1-8-1.7-6.5-3.5-13.2-3.9-17.3-.4-4.4-.1-13.9.1-24 .2-8.7.4-17.6.3-24.4-.1-4.6-.3-9.7-.4-14.7-.4-10.9-.8-22.1-.1-26.8.4-3 .9-5.5 1.4-7.8.7-3.2 1.2-6 1.2-8.8 0-5.4-.5-10-6.4-21.5l-1.4-2.6c-5.1-9.7-8.8-16.9-10.6-31.5 1.4 0 2.8-.1 4.3-.1 43.8 0 85.2 19.1 113.6 52.5l3-2.6C-188.5 243.6-231 224-276 224c-3.6 0-7.1.1-10.7.4-5.8.1-16.9.8-29.5 5-.1 0-.3.1-.4.1-64.8 17.8-112.6 77.3-112.6 147.7 0 84.5 68.7 153.2 153.2 153.2 38.2 0 74.8-14.1 103-39.8 28-25.5 45.6-60.2 49.4-97.7l-4-.5zM-299 467.7c.7-3.3 1.3-5.2 1.8-7l.1-.5c.6-2 1.3-6 1.2-8.3 0-.6.2-1 .4-1.1.1 0 .4.2.7.5.4.5 1.3 1.9 1 5.1-.2 2.4-1.5 6.8-2.7 11.1-1.1 3.8-2.1 7.4-2.7 10.4v-.8c0-.4 0-.9-.1-1.5-.1-2-.3-5.3.3-7.9z"/>
</svg>
