<svg viewBox="-666 281 306 306" version="1.1" xmlns="http://www.w3.org/2000/svg" xmlns:xlink="http://www.w3.org/1999/xlink">
  <g id="services-cosmetology" stroke="none" stroke-width="1" fill="none" fill-rule="evenodd" transform="translate(-666.000000, 281.000000)">
    <path d="M268.5,53.1 C241.8,22.3 204.7,3.7 164,0.8 C80,-5.2 6.8,58.2 0.8,142.2 C-5.2,226.2 58.2,299.4 142.2,305.4 C145.9,305.7 149.6,305.8 153.3,305.8 C170,305.8 186.5,303.1 202.3,297.7 L201.3,294.9 C182.3,301.4 162.5,303.9 142.3,302.5 C60,296.6 -2.2,224.8 3.7,142.5 C9.6,60.2 81.4,-2 163.7,3.9 C203.6,6.8 240,25 266.1,55.2 C292.3,85.4 305.1,124 302.3,163.9 C300.7,186.6 294.2,208 282.9,227.6 L285.5,229.1 C296.9,209.1 303.6,187.3 305.3,164.2 C308.3,123.3 295.2,83.9 268.5,53.1 L268.5,53.1 Z" id="Shape" fill="#000000"></path>
    <path d="M226.2,221.9 L219.7,208.6 C219.6,207.5 219,206.5 218.1,205.9 L211.9,199.9 C211.6,199.6 211.2,199.3 210.8,199.2 L200.8,183.7 L200.6,183.5 C198,180.7 189.9,182 183.5,187.7 C177.5,193.1 176.5,198.2 176.4,200.7 C176.3,202.8 176.9,204.7 177.9,205.7 L193.4,215.5 C193.6,216.1 193.9,216.7 194.3,217.1 L200.5,223.1 C201.1,224 202.2,224.6 203.3,224.6 L216.9,230.6 L250.4,263.3 C251.6,264.4 253.1,265.1 254.8,265.1 L254.9,265.1 C256.6,265.1 258.2,264.4 259.3,263.2 C260.4,262 261.1,260.4 261.1,258.7 C261.1,257 260.4,255.4 259.2,254.3 L226.2,221.9 L226.2,221.9 Z M185.5,189.9 C191.2,184.7 197.3,184.7 198.3,185.5 L207.4,199.7 C207.2,199.8 207.1,199.9 207,200.1 L199,207.7 L183.3,192.2 C183.9,191.4 184.7,190.6 185.5,189.9 L185.5,189.9 Z M179.4,200.7 C179.4,199.6 179.8,197.3 181.5,194.5 L196.8,209.6 L194.2,212.1 C194.1,212.2 194.1,212.2 194.1,212.3 L180,203.4 C179.7,203.1 179.4,202.2 179.4,200.7 L179.4,200.7 Z M257.2,261 C256.6,261.6 255.8,262 254.9,262 C254,262 253.2,261.7 252.5,261.1 L218.7,228 L204.3,221.7 L203.9,221.5 L203.5,221.5 C203.3,221.5 203.2,221.4 203.1,221.3 L203,221.1 L196.5,214.8 L196.5,214.7 L197,213.9 L196.8,213.8 L209.2,201.9 C209.3,201.8 209.5,201.8 209.5,201.8 C209.6,201.8 209.7,201.8 209.8,201.9 L216.3,208.2 L216.5,208.3 C216.7,208.4 216.8,208.6 216.8,208.7 L216.8,209.1 L223.8,223.5 L257.2,256.2 C257.8,256.8 258.2,257.6 258.2,258.5 C258.1,259.5 257.8,260.4 257.2,261 L257.2,261 Z M175.9,236.9 L173.7,234.9 C167.1,242.2 157.6,249.7 137.7,249.7 L137.7,252.7 C158.8,252.7 169.2,244.2 175.9,236.9 L175.9,236.9 Z M188.5,152 C187.9,152.4 174.7,161.5 161.3,152 L159.6,154.4 C164.7,158 169.8,159.2 174.3,159.2 C183.3,159.2 190.1,154.5 190.3,154.4 L188.5,152 L188.5,152 Z M123.5,154.4 L121.8,152 C121.2,152.4 108,161.5 94.6,152 L92.9,154.4 C98,158 103.1,159.2 107.6,159.2 C116.6,159.2 123.4,154.5 123.5,154.4 L123.5,154.4 Z M140.9,223.6 C151.5,223.6 159.6,217 159.7,216.9 L161.8,215.2 L159.3,214.3 C156.7,213.4 155.4,212.7 154.2,212.2 C152.9,211.5 151.7,211 149.6,210.4 C146.7,209.6 145.1,210.4 143.8,211 C143.1,211.3 142.5,211.6 141.8,211.6 C141,211.6 140.1,211.3 139.1,210.9 C137.3,210.3 135.1,209.5 132.8,210.5 C129.8,211.7 124.3,214.3 124.1,214.4 L122,215.4 L123.8,216.9 C129.6,222 135.6,223.6 140.9,223.6 L140.9,223.6 Z M133.8,213.3 C135.1,212.8 136.4,213.2 137.9,213.8 C139.1,214.2 140.3,214.7 141.6,214.7 C143,214.7 144.1,214.2 144.9,213.8 C146,213.3 146.8,212.9 148.6,213.4 C150.5,213.9 151.4,214.4 152.7,215 C153.5,215.4 154.3,215.8 155.5,216.3 C150.8,219.3 139.3,224.7 127.3,216.2 C129.3,215.2 132,214 133.8,213.3 L133.8,213.3 Z M168.5,75.8 C168.8,77.3 170.8,78.6 176.8,81.9 C181.8,84.7 188.1,88.2 191.7,91.8 C204.6,104.6 208.5,124.3 207.9,133.7 C207.2,144.5 208,154.2 208,154.3 L208.4,159.6 L210.8,154.9 C210.9,154.7 211.4,153.7 212.1,152.2 C214.8,151.9 218.4,152.1 219.3,153.9 C220.9,157.5 219.1,163.8 214.3,171.1 L216.8,172.7 C222.2,164.3 224.1,157.2 222.1,152.6 C220.7,149.4 216.6,148.8 213.6,149 C217.9,139 225.7,118 223.9,100.1 C221,72.3 208.1,57.9 197.8,50.8 C186.6,43 176.2,41.9 175.7,41.9 L172.4,41.6 L174.4,44.3 C174.7,44.8 182.8,56.1 169,74.4 C168.5,74.7 168.4,75.2 168.5,75.8 L168.5,75.8 Z M178.3,45.3 C182.1,46.2 189,48.3 196.2,53.3 C210.4,63.2 218.7,79 220.9,100.4 C222.7,117.5 214.9,138.3 210.8,148 C210.7,144.3 210.7,139.3 211,134 C211.6,123.7 207.6,103.4 194,89.8 C190.1,86 183.7,82.3 178.5,79.4 C176,78 173.1,76.4 172,75.4 C182.4,60.9 180.3,50.2 178.3,45.3 L178.3,45.3 Z" id="Shape" fill="#000000"></path>
    <path d="M164.4,39.6 C147.3,29.4 108.6,36.1 89.1,52.6 C69.3,69.3 66.3,109.4 65.9,125.9 C65.6,140.2 70.9,154.1 71.1,154.6 L73.1,159.6 L74,154.3 C74,154.2 75.1,148.1 77,142.9 C79.6,135.6 79.9,132.3 80.3,128.5 C80.6,125.8 80.8,122.7 82.1,117.4 C85.6,103 90.5,94.1 97.8,88.4 C105.1,82.7 114.2,81.8 125.6,80.5 C127.3,80.3 129.1,80.1 130.9,79.9 C144.9,78.2 160.9,76.9 161,76.9 L161.7,76.8 L162.1,76.3 C162.6,75.7 173.6,60.7 171.2,49 C170.4,45 168.1,41.8 164.4,39.6 L164.4,39.6 Z M160.1,74 C156.9,74.3 143,75.5 130.6,77 C128.8,77.2 127,77.4 125.3,77.6 C113.4,78.9 104,79.9 96,86.1 C85.8,93.9 81.7,106.6 79.2,116.8 C77.9,122.3 77.6,125.5 77.3,128.3 C76.9,132 76.7,135 74.2,141.9 C73.4,144.1 72.8,146.4 72.3,148.4 C70.8,143.1 68.8,134.6 69,126 C69.3,113.5 71.8,71.3 91.2,54.9 C104.5,43.7 125.7,37.9 142.6,37.9 C150.9,37.9 158.3,39.3 163.1,42.2 C166.1,44 167.9,46.4 168.5,49.7 C170.1,58.9 162,71.3 160.1,74 L160.1,74 Z" id="Shape" fill="#000000"></path>
  </g>
</svg>
