<?xml version="1.0" encoding="utf-8"?>
<!-- Generator: Adobe Illustrator 19.1.0, SVG Export Plug-In . SVG Version: 6.00 Build 0)  -->
<svg version="1.1" id="Слой_1" xmlns="http://www.w3.org/2000/svg" xmlns:xlink="http://www.w3.org/1999/xlink" x="0px" y="0px"
	 viewBox="0 0 595.3 841.9" style="enable-background:new 0 0 595.3 841.9;" xml:space="preserve">
<style type="text/css">
	.st0{fill:#FFFFFF;}
</style>
<g>
	<path class="st0" d="M-498.1,377.4c-2.2,82.5-71.2,147.8-153.7,145.6c-82.5-2.2-147.8-71.2-145.6-153.7
		c2.2-82.5,71.2-147.8,153.7-145.6c23.8,0.6,46.4,6.7,67.2,18l1.4-2.6c-21.2-11.5-44.3-17.7-68.6-18.4
		c-84.1-2.3-154.5,64.3-156.8,148.5c-2.3,84.2,64.3,154.5,148.5,156.8c1.4,0,2.8,0.1,4.2,0.1c82.3,0,150.3-65.8,152.6-148.5
		L-498.1,377.4z"/>
	<path class="st0" d="M-577.8,348.7c-9.7-9.3-22.8-15-37.2-15c-8.2,0-15.9,1.8-22.8,5.1c-7.6-20.5-27.4-35.2-50.5-35.2
		c-29.7,0-53.8,24.2-53.8,53.8c0,29.2,23.3,53,52.3,53.8v26.2H-709v3h19.1v13.2h3v-13.2h19.1v-3h-19.1v-26.2
		c7.6-0.2,14.8-2,21.3-5.1c7.6,20.5,27.4,35.2,50.5,35.2c29.7,0,53.8-24.2,53.8-53.8c0-14.2-5.5-27.1-14.5-36.7l34.5-34.5v28.1h3
		v-33.2h-33.2v3h28.1L-577.8,348.7z M-688.4,408.3c-28,0-50.8-22.8-50.8-50.8s22.8-50.8,50.8-50.8c22,0,40.7,14,47.8,33.5
		c-16.8,9.1-28.3,26.9-28.3,47.4c0,5.5,0.8,10.8,2.4,15.8C-673.2,406.5-680.6,408.3-688.4,408.3z M-637.6,357.5
		c0,19.1-10.6,35.8-26.3,44.5c-1.4-4.6-2.1-9.4-2.1-14.4c0-19.1,10.6-35.8,26.3-44.5C-638.3,347.6-637.6,352.5-637.6,357.5z
		 M-615.1,438.4c-22,0-40.7-14-47.8-33.5c16.8-9.1,28.3-26.9,28.3-47.4c0-5.5-0.8-10.8-2.4-15.8c6.6-3.2,14-5,21.9-5
		c28,0,50.8,22.8,50.8,50.8S-587,438.4-615.1,438.4z"/>
</g>
</svg>
