<svg viewBox="-430 224 307 307" version="1.1" xmlns="http://www.w3.org/2000/svg" xmlns:xlink="http://www.w3.org/1999/xlink">
  <g id="services-pedicure" stroke="none" stroke-width="1" fill="none" fill-rule="evenodd" transform="translate(-430.000000, 224.000000)">
    <path d="M142.4,253.7 L142,257.7 C147.5,258.2 156,259.3 157.5,260 C157.9,260.2 158.3,260.3 158.8,260.3 C159.2,260.3 159.7,260.2 160.1,260 C160.9,259.6 161.5,258.9 161.8,258.1 C162.4,256.1 162.3,251.8 159.6,248.6 C157.7,246.4 153.9,243.9 146.4,244.8 L146.9,248.8 C151.4,248.2 154.7,249.1 156.5,251.2 C157.9,252.8 158.1,254.8 158.1,256.1 C154.2,254.9 144.5,253.9 142.4,253.7 L142.4,253.7 Z M263,92.5 L188,176.8 C185.6,179.3 179.8,194.2 182.9,201.3 L177.9,206.3 C174.4,204.5 172.1,206 170.7,207.5 L160,218 C158.9,219.1 155.8,223.1 162,229.3 C164.1,231.4 166.1,232.6 168,232.9 C168.4,233 168.7,233 169.1,233 C170.7,233 172.1,232.4 173.3,231.3 L184,220.6 C185.4,219.2 187,216.9 185.2,213.4 L190.2,208.4 C197.3,211.5 212.2,205.7 214.7,203.3 L299,128.2 C302.7,124.8 304.9,120.2 305,115.2 C305.1,110.2 303.2,105.4 299.7,101.9 L289.5,91.7 C285.9,88.1 281.2,86.3 276.2,86.4 C271,86.6 266.3,88.7 263,92.5 L263,92.5 Z M276.1,90.4 C280,90.3 283.7,91.8 286.5,94.5 L296.7,104.7 C299.5,107.5 300.9,111.2 300.8,115.1 C300.7,119 299,122.6 296.1,125.2 L211.8,200.3 L211.7,200.4 C209.7,202.3 194.8,207.5 190.9,204.3 L189.5,203.1 L179.8,212.8 L180.8,214.2 C182.3,216.3 181.8,216.8 181,217.7 L170.3,228.4 C168.7,230 166.1,227.9 164.7,226.4 C163.3,225 161.1,222.4 162.7,220.8 L173.4,210.1 C173.9,209.6 174.2,209.3 174.8,209.3 C175.3,209.3 175.9,209.6 176.9,210.3 L178.3,211.3 L188,201.6 L186.8,200.2 C183.6,196.3 188.8,181.4 190.7,179.4 L265.8,95 C268.6,92.2 272.2,90.5 276.1,90.4 L276.1,90.4 Z" id="Shape" fill="#000000"></path>
    <path d="M302.4,168.4 C294.6,244.7 230.8,302.3 154,302.3 C71.7,302.3 4.8,235.4 4.8,153.1 C4.8,94.7 38.5,44.1 87.5,19.6 C87.6,20.1 87.6,20.7 87.7,21.4 C88.6,28.3 90.3,41.2 89.4,49.1 C89.1,51.8 88.5,54.4 88,56.9 C86.6,63.2 85.2,69.8 88.2,78.5 C91.9,89.2 91,96.1 89.6,102.8 C88.8,106.8 87.6,111.4 86.2,117.3 C85.3,120.8 84.4,124.7 83.4,129 C82.1,134.4 77.6,145.8 73.2,156.8 C68.3,169.1 63.2,181.9 62,187.8 C59.9,198.3 59,204.6 58.4,211.4 C57.8,217.6 58.8,221.6 59.8,225.4 L60,226 C61,229.7 63.1,234.5 65.5,236.9 C67.7,239.1 70.6,239.5 72.6,239.5 C72.7,241 73,243 73.7,244.6 C74.7,247.2 76.2,250 79.5,251.4 C81.3,252.1 83.7,251.9 85.5,251.6 C85.6,252.9 85.7,254.4 85.9,255.3 C86.3,257 87.4,259.5 88.9,261 C91.4,263.5 94.4,264.5 97.8,264 C98.9,263.8 99.9,263.6 100.8,263.4 C101.5,263.2 102.1,263.1 102.7,262.8 C102.9,264.9 103.4,267.5 104.8,269.5 C107.9,273.7 112.6,274.3 116.4,274.3 C121.8,274.3 128.1,270.1 129.6,263.2 C129.9,261.6 130.2,260 130.3,258.5 C131.3,267.3 137,272.1 147.2,272.6 C159.7,273.3 171.3,265.2 174.7,253.5 C175.6,250.5 176,247 176.1,243 L172.1,242.9 C172,246.5 171.6,249.7 170.8,252.3 C167.9,262.3 158.1,269.1 147.4,268.5 C136.6,267.9 134.7,262.2 134.3,257.9 C134.1,255.7 135.8,249.5 137.3,244.5 C138.6,239.8 139.9,235.4 140.2,232.7 C140.6,228.3 139.4,225.8 138.3,224.5 C137.3,223.4 136,222.7 134.7,222.7 C133.6,222.7 132.5,223.1 131.7,224 C130.7,225 130.2,226.5 130.3,228.1 C130.4,229.6 129.8,233.1 129.3,235.1 L129.2,235.6 C128.7,237.4 128.1,239.4 127.4,242.8 C126.7,246 126.9,249.6 127,251.8 C127,252.3 127.1,252.8 127.1,253.1 C127.1,254.4 126.8,258.3 126,262.3 C125,267 120.5,270.2 116.8,270.2 C112.5,270.2 110,269.3 108.4,267.1 C107,265.2 106.9,261.3 107.1,259.7 C107.2,259.3 107.3,258.9 107.5,258.6 C107.7,258.2 107.8,257.7 107.9,257.4 C108,257.1 108.2,256.7 108.3,256.4 C109.1,254.9 109.8,253 110.5,251 C111.4,248.8 112.2,246.4 112.8,243.5 C113.5,240.4 113.9,234.7 114,226.5 C114,224.8 114.1,223.3 114.2,222.1 C114.4,219.1 114.5,217.7 113.7,216.6 C112.9,215.5 111.4,215.1 110.2,215.6 C109.7,215.8 108,216.9 108.7,219.9 C109,221.1 109.1,223.4 109.1,225.8 C109.1,227.4 109.2,229.2 109.3,231.1 C109.5,234.3 108.7,243 106.7,249.7 L105.5,252.7 C105.2,253.4 104.9,254.1 104.7,254.8 C104.5,255.2 104.3,255.7 104.2,256.2 C104.1,256.6 103.9,256.9 103.8,257.3 C103.5,257.9 103.1,258.5 102.4,258.9 C101.4,259.4 100,259.8 97.8,260.1 C95.7,260.4 93.8,259.8 92.3,258.2 C91.6,257.5 90.7,255.8 90.4,254.4 C90.2,253.5 90.1,251.3 90,249.7 C90.3,247.7 91,245.4 91.9,242.2 C92.3,240.8 92.8,239.3 93.2,237.5 C94.3,233.6 94.7,230.9 95.1,227.9 C95.3,226.3 95.6,224.6 95.9,222.7 C97,217.2 97,214.9 97,213.9 C97,212.5 95.9,211.4 95,211 C94,210.5 92.8,210.5 92,211 C91.5,211.4 90.6,212.2 90.8,214.1 C91.1,216.5 91,224.9 90.9,229.2 C90.6,231.4 90.2,233.6 89.4,236.4 C88.9,238.1 88.5,239.7 88.1,241.1 C87.4,243.6 86.8,245.7 86.4,247.5 C84.7,247.9 82.6,248.2 81.6,247.8 C80,247.1 79,245.9 78,243.3 C77.2,241.2 77.1,238 77.1,237.5 C77.4,234.5 77.4,232.5 77.4,231 C77.4,229.8 77.4,228.8 77.5,227.7 C77.6,226.5 78.1,224.8 78.5,223 C78.6,222.6 78.8,222 78.9,221.4 C79.4,219.5 79.9,217.5 80.3,215.6 C81.2,211.3 81.6,208.8 79.7,207.2 C78.7,206.3 77.6,206.5 76.9,206.9 C75.3,207.9 75.5,210.4 75.9,212.3 C76.2,213.4 75.7,217.4 75,220.2 C75,220.3 74.9,220.4 74.9,220.5 C74.2,223 73.6,225.4 73.4,227.1 C73.2,228.4 73.2,229.6 73.2,230.9 C73.2,232.1 73.2,233.6 73.1,235.6 C71.9,235.6 70,235.4 68.8,234.1 C67.3,232.6 65.4,228.7 64.4,225 L64.2,224.4 C63.2,220.8 62.3,217.3 62.9,211.8 C63.6,205.2 64.4,199 66.5,188.6 C67.6,183.1 72.6,170.5 77.5,158.3 C82.2,146.6 86.6,135.6 87.9,129.9 C88.9,125.6 89.9,121.7 90.7,118.2 C92.2,112.3 93.3,107.7 94.1,103.6 C95.6,96.3 96.6,88.8 92.5,77.2 C89.8,69.5 91,64.1 92.4,57.7 C93,55.1 93.5,52.4 93.9,49.5 C94.8,41.1 93.1,27.9 92.2,20.8 C92.1,19.9 92,19.1 91.9,18.5 C93.7,17.4 99.4,14.4 115.1,9.2 C124.3,6.7 133.9,5 143.7,4.3 L146.3,4.3 C148.2,19.7 152.3,27.5 157.4,37.3 L158.7,39.9 C164.7,51.4 164.7,55.5 164.7,59.6 C164.7,62 164.2,64.6 163.5,67.6 C163,69.9 162.5,72.6 162.1,75.7 C161.4,80.8 161.8,91.7 162.2,103.2 C162.4,108.2 162.6,113.3 162.6,117.8 C162.7,124.5 162.5,133.5 162.3,142.1 C162.1,152.3 161.8,161.9 162.2,166.5 C162.6,170.9 164.3,177.5 166.2,184.5 C166.9,187.1 167.6,189.9 168.3,192.4 L172.2,191.4 C171.6,188.8 170.8,186.1 170.1,183.4 C168.4,176.9 166.6,170.2 166.2,166.1 C165.8,161.7 166.1,152.2 166.3,142.1 C166.5,133.4 166.7,124.5 166.6,117.7 C166.5,113.1 166.3,108 166.2,103 C165.8,92.1 165.4,80.9 166.1,76.2 C166.5,73.2 167,70.7 167.5,68.4 C168.2,65.2 168.7,62.4 168.7,59.6 C168.7,54.2 168.2,49.6 162.3,38.1 L160.9,35.5 C155.8,25.8 152.1,18.6 150.3,4 C151.7,4 153.1,3.9 154.6,3.9 C198.4,3.9 239.8,23 268.2,56.4 L271.2,53.8 C241.5,19.6 199,0 154,0 C150.4,0 146.9,0.1 143.3,0.4 C137.5,0.5 126.4,1.2 113.8,5.4 C113.7,5.4 113.5,5.5 113.4,5.5 C48.6,23.3 0.8,82.8 0.8,153.2 C0.8,237.7 69.5,306.4 154,306.4 C192.2,306.4 228.8,292.3 257,266.6 C285,241.1 302.6,206.4 306.4,168.9 L302.4,168.4 L302.4,168.4 Z M131,243.7 C131.7,240.4 132.3,238.5 132.8,236.7 L132.9,236.2 C133.5,234.2 134.2,230.2 134.1,227.9 C134.1,227.3 134.3,226.9 134.5,226.8 C134.6,226.8 134.9,227 135.2,227.3 C135.6,227.8 136.5,229.2 136.2,232.4 C136,234.8 134.7,239.2 133.5,243.5 C132.4,247.3 131.4,250.9 130.8,253.9 L130.8,253.1 C130.8,252.7 130.8,252.2 130.7,251.6 C130.6,249.6 130.4,246.3 131,243.7 L131,243.7 Z" id="Shape" fill="#000000"></path>
  </g>
</svg>

