<svg viewBox="-430 217 318 307" version="1.1" xmlns="http://www.w3.org/2000/svg" xmlns:xlink="http://www.w3.org/1999/xlink">
  <g id="services-trichology" stroke="none" stroke-width="1" fill="none" fill-rule="evenodd" transform="translate(-430.000000, 217.000000)">
    <path d="M301.8,169.9 C292.8,251.9 218.7,311.4 136.7,302.4 C54.7,293.4 -4.8,219.4 4.2,137.3 C4.3,136.3 4.4,135.4 4.6,134.4 C9,133.3 77.4,117.3 105.4,133.6 C115.1,139.2 122.2,147.1 104,181 C85.8,214.9 86.3,235.5 105.8,254.4 C114.2,262.5 125.3,266.6 136.5,266.6 C147.2,266.6 158,262.9 166.7,255.5 C189.7,235.8 185.1,204.7 173,182.2 C164.7,166.6 162.1,154.4 165.3,146.1 C167.3,141 171.6,137.2 178,134.9 C186.6,131.9 196.9,130.5 211.4,130.4 L211.4,127.4 C196.5,127.5 185.9,128.9 177,132 C169.7,134.6 164.9,138.9 162.5,144.9 C158.9,154.1 161.5,167.1 170.3,183.5 C181.8,205 186.3,234.6 164.7,253.2 C148,267.4 123,267 107.8,252.3 C89.4,234.5 89.1,214.9 106.5,182.5 C124.1,149.8 119.6,138.6 106.8,131.1 C78.9,114.8 15.5,128.8 4.9,131.3 C16.8,52.4 89.2,-3.9 169.2,4.9 C202.3,8.5 232.5,22.6 256.4,45.6 L258.5,43.4 C234.1,20 203.3,5.6 169.5,1.9 C85.8,-7.3 10.3,53.4 1.1,137 C-8.1,220.7 52.6,296.2 136.2,305.4 C141.8,306 147.4,306.3 152.9,306.3 C229.7,306.3 296,248.3 304.6,170.2 C304.9,167.9 305.1,165.5 305.2,163.2 L302.2,163 C302.3,165.3 302.1,167.6 301.8,169.9 L301.8,169.9 Z" id="Shape" fill="#000000"></path>
    <path d="M317.5,89.8 C317.3,88.6 316.6,87.5 315.6,86.8 L294.4,72 C292.3,70.6 289.4,71 287.9,73 L272.5,93.1 C271.9,93.8 270.9,94 270.1,93.5 C268,92.1 265.1,92.5 263.6,94.5 L252.2,109.7 C251.5,110.7 251.1,111.9 251.3,113.1 C251.5,114.3 252.2,115.4 253.2,116.1 L260.1,120.9 L208.6,197.2 C205.3,201.3 207,206.5 210.5,209.5 C212.4,211.1 214.8,212.2 217.4,212.2 C219.9,212.2 222.6,211.2 224.9,208.7 L277.7,133.1 L284.5,137.8 C285.3,138.4 286.2,138.6 287.2,138.6 C288.6,138.6 290.1,137.9 291,136.7 L302.7,121.2 C304.1,119.4 303.9,116.8 302.2,115.3 L301.7,114.8 C301.2,114.3 301.1,113.4 301.5,112.8 L316.6,93 C317.4,92.3 317.7,91 317.5,89.8 L317.5,89.8 Z M222.6,206.8 C219,210.6 214.9,209.5 212.4,207.3 C210,205.2 208.8,201.7 210.9,199.1 L262.1,123.3 L274.7,132.1 L222.6,206.8 L222.6,206.8 Z M314.2,91.4 L299.1,111.2 C297.7,113 297.9,115.6 299.6,117.1 L300.1,117.6 C300.6,118.1 300.7,119 300.2,119.6 L288.5,135.1 C287.9,135.8 286.9,136 286.1,135.5 L254.9,113.8 C254.6,113.6 254.3,113.2 254.3,112.8 C254.3,112.4 254.3,112 254.6,111.7 L266,96.5 C266.3,96.1 266.9,95.8 267.4,95.8 C267.7,95.8 268.1,95.9 268.4,96.1 C270.5,97.5 273.4,97.1 274.9,95.1 L290.3,75 C290.9,74.3 291.9,74.1 292.7,74.6 L313.9,89.4 C314.2,89.6 314.5,90 314.5,90.4 C314.6,90.7 314.5,91.1 314.2,91.4 L314.2,91.4 Z M113.1,229.2 C115.9,239.6 125.3,246.4 135.6,246.4 C137.6,246.4 139.6,246.1 141.7,245.6 C147.8,244 153,239.9 156.1,234.4 C159.1,229 159.8,222.8 158.1,217 C157.3,214.4 156.7,212.3 156.2,210.5 C154.6,204.9 153.7,202.2 152.3,196.6 C149.8,186.8 148.5,178.2 148.3,158.4 C147.7,107.5 135.4,80.4 125.1,66.7 C113.8,51.6 102.6,48.8 102.1,48.7 L97.3,47.6 L100.6,51.2 C100.8,51.4 115.8,67.9 125.1,96 C133.6,122 138.8,163.3 114.8,213 C112.1,218.2 111.6,223.7 113.1,229.2 L113.1,229.2 Z M117.4,214.3 C141.9,163.8 136.6,121.6 127.9,95.1 C121.3,75.1 112,61 106.8,54 C110.9,56.3 116.9,60.7 122.8,68.7 C132.7,82.1 144.7,108.5 145.2,158.3 C145.4,178.4 146.8,187.2 149.3,197.2 C150.7,202.8 151.6,205.6 153.2,211.2 C153.7,213 154.4,215.1 155.1,217.7 C156.6,222.8 155.9,228.1 153.3,232.8 C150.6,237.6 146.1,241.1 140.8,242.5 C130,245.4 118.8,239 115.9,228.2 C114.7,223.6 115.1,219 117.4,214.3 L117.4,214.3 Z" id="Shape" fill="#000000"></path>
    <path d="M135.3,229.3 L135.5,229.3 C138.5,229.2 141.2,227.7 142.8,225.2 L140.3,223.6 C139.3,225.3 137.5,226.3 135.5,226.3 C134,226.3 132.5,225.8 131.4,224.7 C130.3,223.6 129.7,222.2 129.6,220.6 C129.6,219.5 129.9,218.4 130.4,217.5 L127.8,215.9 C126.9,217.3 126.5,219 126.5,220.6 C126.5,222.9 127.5,225.1 129.2,226.8 C130.9,228.5 133,229.3 135.3,229.3 L135.3,229.3 Z" id="Shape" fill="#000000"></path>
  </g>
</svg>
