<?xml version="1.0" encoding="utf-8"?>
<!-- Generator: Adobe Illustrator 19.1.0, SVG Export Plug-In . SVG Version: 6.00 Build 0)  -->
<svg version="1.1" id="Слой_1" xmlns="http://www.w3.org/2000/svg" xmlns:xlink="http://www.w3.org/1999/xlink" x="0px" y="0px"
	 viewBox="0 0 595.3 841.9" style="enable-background:new 0 0 595.3 841.9;" xml:space="preserve">
<style type="text/css">
	.st0{fill:#FFFFFF;}
</style>
<g>
	<path class="st0" d="M-177.1,347.6c-8.7,5.5-17,10.7-21.5,12.9c-9.4,4.6-9.4,4.6-14,5.8c-7.9,2.1-13.3,11.8-19.1,23.3
		c-6,12.1-9.7,15.9-14,20.3c-5.7,5.8-4.2,9.4-2.8,11.1c1.8,2.1,5.3,3.1,8.9,3.1c3.6,0,7.4-0.9,9.7-2.6c4-2.8,5.5-5,7.2-7.3
		c1.3-1.8,2.7-3.7,5.5-6.3c0.8-0.8,1.5-1.5,2.1-2.1c-0.2,3.4-0.3,7-0.1,10.7c0.3,7-0.7,11.8-1.8,16.9c-0.6,2.9-1.2,5.8-1.6,9.2
		c-1.1,9.5-2.6,22.6,6.4,24.4c0.7,0.2,1.4,0.2,2.1,0.2c1.7,0,3.2-0.5,4.3-1.2c-0.6,7.3,0.6,12.3,5.5,13.7c1.2,0.3,2.3,0.5,3.4,0.5
		c2.1,0,4-0.6,5.7-1.8c1.3-0.9,2.4-2.1,3.2-3.7c0.4,0.8,0.9,1.5,1.5,2.1c1.3,1.1,2.9,1.7,4.9,1.7c1.4,0,3-0.3,4.7-0.8
		c5.1-1.6,7.8-5.9,9.7-12.5c0.4,0,0.8,0,1.1,0c11,0,14.4-8,16.3-16.7c2-8.9,7.1-19.8,11.5-29.3c0.6-1.2,1.1-2.4,1.7-3.6
		c5.1-10.9,7.6-16.3,7.8-23c0.1-2.9,0.3-7.7,0.4-12c0.1,0,0.1,0,0.2-0.1c8.5-4.3,21.7-11,21.7-11l-1.4-2.7c0,0-11.9,6.1-20.4,10.4
		c0.1-3.4,0.2-5.9,0.2-5.9l-3-0.1c0,0-0.6,15-0.8,21.3c-0.2,6-2.7,11.3-7.5,21.8c-0.5,1.2-1.1,2.4-1.7,3.6
		c-4.5,9.7-9.7,20.7-11.8,29.9c-2.3,10.5-6.1,14.5-13.7,14.4c0.3-1.5,0.6-3,0.9-4.6c1.8-9.9,3.9-17.6,5.8-24.3
		c1.1-3.8,2.1-7.3,2.9-11c2.4-10.2,3-17.3,3-17.6c0.1-0.8-0.5-1.5-1.4-1.6c-0.8-0.1-1.5,0.5-1.6,1.4c0,0.1-0.6,7.1-2.9,17.1
		c-0.8,3.6-1.8,7.1-2.9,10.9c-1.9,6.8-4.1,14.6-5.9,24.6c-2.1,11.5-4.6,16.3-9.3,17.8c-2.2,0.7-5.1,1.2-6.8-0.3
		c-1.2-1.1-1.7-3.2-1.3-5.7c0-0.1,0-0.2,0-0.2c0.4-1.7,0.6-3.5,0.7-5.5c0.7-10.4,2.4-15.1,4.5-20.5c1.2-3.3,2.5-6.7,3.7-11.6
		c3.1-13.1,4-20.7,4-21c0.1-0.8-0.5-1.6-1.3-1.7c-0.8-0.1-1.6,0.5-1.7,1.3c0,0.1-0.9,7.8-4,20.7c-1.1,4.8-2.4,8.1-3.6,11.3
		c-2,5.4-4,10.5-4.7,21.4c-0.4,6.5-2.1,11.1-5,13.1c-1.8,1.3-4,1.5-6.6,0.8c-6.8-1.9-1.9-20.3,1-31.3c4.1-15.3,7.1-37.8,7.2-38
		c0.1-0.8-0.5-1.6-1.3-1.7c-0.8-0.1-1.6,0.5-1.7,1.3c0,0.2-3.1,22.5-7.1,37.7c-1.5,5.7-2.9,11.2-3.7,16c-0.2,0.2-0.4,0.4-0.5,0.6
		c-0.1,0.1-1.4,3.6-6,2.7c-6.3-1.3-5-12.7-4-21.1c0.4-3.3,1-6.2,1.6-9c1.1-5.1,2.2-10.3,1.8-17.7c-0.7-13.5,2.1-26.5,2.1-26.6
		c0.2-0.8-0.3-1.6-1.1-1.8c-0.8-0.2-1.6,0.3-1.8,1.1c-0.1,0.3-1,4.8-1.7,11.3c-0.2,0.2-0.4,0.6-0.4,0.9c-0.3,0.4-1.3,1.6-4.2,4.3
		c-3,2.8-4.5,4.9-5.9,6.8c-1.6,2.3-2.9,4.1-6.5,6.6c-4,2.8-12.3,2.8-14.7,0.1c-1.7-2,0.9-5.3,2.7-7c4.3-4.4,8.3-8.6,14.5-21.1
		c6.3-12.6,11.1-20.1,17.2-21.8c4.8-1.3,5-1.4,14.5-6.1c4.6-2.3,13-7.5,21.8-13.1c9-5.7,18.4-11.6,25.3-15.3
		c13.9-7.4,25-14.9,25.1-15c0.7-0.5,0.9-1.4,0.4-2.1c-0.5-0.7-1.4-0.9-2.1-0.4c-0.1,0.1-11.1,7.4-24.8,14.8
		C-158.7,336-168.1,341.9-177.1,347.6z"/>
	<path class="st0" d="M-213,500.2c-5.5-3.3-8.1-4.9-12.5-17c-4.3-11.9-12.4-13-16.8-13.6c-0.9-0.1-1.7-0.2-2.2-0.4
		c-0.8-0.3-1.6,0.1-1.9,0.9c-0.3,0.8,0.1,1.6,0.9,1.9c0.7,0.3,1.7,0.4,2.7,0.5c4.3,0.6,10.7,1.5,14.4,11.7c4.8,13.1,8,15,13.8,18.5
		l1.3,0.8c0.2,0.1,0.5,0.2,0.8,0.2c0.5,0,1-0.3,1.3-0.7c0.4-0.7,0.2-1.6-0.5-2.1L-213,500.2z"/>
	<path class="st0" d="M-107.7,424.8c-13.2,70.7-75.1,122-147.1,122c-29.5,0-57-8.6-80.1-23.3c2.6-2.3,8.2-7,15.5-12.4
		c10-7.3,23.1-31.7,31.7-47.8l1.9-3.6c8.1-15,25.6-23.2,25.8-23.3c0.8-0.3,1.1-1.2,0.7-2c-0.3-0.8-1.2-1.1-2-0.7
		c-0.8,0.3-18.6,8.7-27.2,24.6l-1.9,3.6c-8.5,15.9-21.3,39.9-30.8,46.8c-8.1,5.9-14.1,11.1-16.4,13.1
		c-40.3-26.8-66.9-72.7-66.9-124.7c0-70,49.6-131.5,117.8-146.3c10.4-2.3,21.1-3.4,31.8-3.4c2.6,0,5.2,0.1,7.9,0.2
		c-4.8,8.8-22.1,40.5-32.3,55.4c-4.2,6.2-8,12.5-11.3,18.1c-5.9,10-11,18.6-15.6,20.7c-7.9,3.6-19.3,10.9-24.1,14.5
		c-2.9,2.1-5.2,6.6-7.8,12.2c-1.4,1.9-20.6,27.7-30.1,36.9c-3.8,3.6-3.7,6.7-3.3,8.2c0.5,1.7,1.7,3.1,3.5,4
		c-3.1,4.9-5.3,8.4-5.9,9.3c-1.5,2.1-1.4,5.1,0.2,7.3c1.1,1.5,2.8,2.3,4.7,2.5c-2.4,3.8-3.3,6.9-2.6,9.3c0.5,1.9,1.9,3.2,4.1,4.1
		c0.8,0.3,1.7,0.5,2.7,0.5c4.9,0,11.1-3.5,13.3-4.8c1.5,0.6,3.1,0.9,4.8,0.9c3.5,0,7.4-1.3,11.4-3.8c3.6-2.2,6.5-5.6,10.2-9.9
		c3.8-4.4,8.5-9.9,15.6-15.9c8.4-7,12.4-11.6,16.3-16c2.6-2.9,5.3-5.9,9.3-9.7c3.2-3.1,5.4-5,6.9-6.3c-0.4,1.9-1.1,4.8-2.3,9
		l-0.4,1.5c-1.8,6.7-3.3,12.5-2.9,15.1c0.6,3.5,2.7,6.2,5.6,7.2c2.9,1,6.2,0.2,8.9-2.3c3.3-3,4.7-6.2,6.7-10.7
		c1.1-2.6,2.4-5.5,4.4-9.2c0.7-1.3,1.5-2.7,2.2-4.1c5.4-9.7,11.4-20.6,11-36.3c-0.2-5.8-0.8-11.3-1.3-16.1c-1-9.4-1.9-16.9,1.3-20.2
		c1.5-1.6,3.7-3.8,6.4-6.6c7.2-7.3,18-18.3,28.7-29.8c4.1-4.4,18.4-18.5,18.6-18.7c0.6-0.6,0.6-1.5,0-2.1
		c14.9,7.2,28.7,16.9,40.8,28.9l2.1-2.1c-26.1-25.9-59.9-41.3-96.3-44c-0.1-0.1-0.1-0.1-0.2-0.1c-0.5-0.3-1-0.2-1.5,0
		c-3.2-0.2-6.4-0.3-9.7-0.3c-10.9,0-21.9,1.2-32.5,3.5c-33.5,7.3-64,26-85.9,52.7c-22.1,27.1-34.3,61.4-34.3,96.5
		c0,53.1,27.3,100,68.5,127.3c0.1,0.1,0.1,0.3,0.3,0.4c0.3,0.3,0.7,0.5,1.1,0.5c0,0,0,0,0,0c23.9,15.5,52.3,24.5,82.8,24.5
		c73.5,0,136.6-52.3,150.1-124.5L-107.7,424.8z M-368.7,412.9c-0.4-1.5,0.5-3.3,2.5-5.2c4-3.9,9.6-10.4,14.8-17
		c-5.5,9-10.9,17.8-15.1,24.5C-367.6,414.6-368.4,413.8-368.7,412.9z M-192.3,262.1c-0.6,0.6-14.6,14.3-18.7,18.8
		c-10.6,11.5-21.4,22.5-28.6,29.7c-2.7,2.8-5,5-6.5,6.6c-4.2,4.3-3.3,12.4-2.2,22.6c0.5,4.7,1.1,10.1,1.3,15.8
		c0.4,14.9-5.4,25.5-10.6,34.8c-0.8,1.4-1.5,2.8-2.3,4.1c-2,3.8-3.4,6.9-4.5,9.4c-2,4.4-3.2,7.1-6,9.7c-1.8,1.7-4,2.3-5.9,1.6
		c-1.9-0.6-3.2-2.4-3.6-4.8c-0.4-2.2,1.6-9.5,2.8-13.8l0.4-1.5c2.8-10.2,3-13,3-13.3l0.1-2.3l-2.1,0.8c-1.1,0.4-4.9,3.7-10.6,9
		c-4.1,3.8-6.8,6.9-9.4,9.9c-3.8,4.3-7.8,8.8-16,15.7c-7.3,6.1-12.1,11.7-15.9,16.2c-3.5,4.1-6.3,7.3-9.5,9.3
		c-5.4,3.3-10.5,4.2-14.1,2.4c-0.3-0.1-1-0.6-1.1-1.7c-0.2-1.8,0.7-6,9.9-14.1c13.5-12.1,23.1-27,30.1-37.9c3.1-4.8,5.8-9,8.2-12
		c0.5-0.6,0.4-1.6-0.2-2.1s-1.6-0.4-2.1,0.2c-2.5,3.1-5.2,7.3-8.4,12.2c-6.9,10.7-16.4,25.5-29.6,37.3c-7.7,6.9-11.4,12.6-10.8,16.8
		c0.1,0.9,0.4,1.7,0.9,2.4c-3.9,2.2-9.6,4.6-12.3,3.5c-1.3-0.5-2.1-1.2-2.3-2.1c-0.4-1.4,0-4.1,4-9.4c0.6-0.7,22.1-27.2,36.4-51.3
		c0.4-0.7,0.2-1.6-0.5-2.1c-0.7-0.4-1.6-0.2-2.1,0.5c-13.4,22.6-33.3,47.4-35.9,50.6c-2,0.5-3.6,0.2-4.5-1.1
		c-0.8-1.1-0.9-2.7-0.2-3.8c2.3-3.4,22.1-35,35.9-58.6c0,0,0,0,0-0.1l0-0.1c2.4-5.1,4.6-9.5,7-11.2c4.7-3.5,15.8-10.6,23.6-14.1
		c5.4-2.5,10.5-11.1,16.9-21.9c3.3-5.5,7-11.8,11.2-17.9c10.8-15.8,29.6-50.3,33.1-56.9c18.5,1.4,36.3,6.1,52.7,13.8
		C-191.4,261.6-191.9,261.7-192.3,262.1z"/>
</g>
</svg>
