<?xml version="1.0" encoding="utf-8"?>
<!-- Generator: Adobe Illustrator 19.1.0, SVG Export Plug-In . SVG Version: 6.00 Build 0)  -->
<svg version="1.1" id="Слой_1" xmlns="http://www.w3.org/2000/svg" xmlns:xlink="http://www.w3.org/1999/xlink" x="0px" y="0px"
	 viewBox="0 0 595.3 841.9" style="enable-background:new 0 0 595.3 841.9;" xml:space="preserve">
<style type="text/css">
	.st0{fill:#FFFFFF;}
</style>
<g>
	<path class="st0" d="M-594.7,372.2l-2,0.2v-0.2h-73.5v-60h-3v160.1c0,5.6-4.6,10.2-10.2,10.2h-6.7c-5.6,0-10.2-4.6-10.2-10.2V312.1
		h-3v160.1c0,7.3,5.9,13.2,13.2,13.2h6.7c7.3,0,13.2-5.9,13.2-13.2v-97.1h72.8c3.7,48.7-16.5,96-54.3,127
		c-63.8,52.3-158.3,43-210.7-20.8c-24.6-30-36.5-67.7-33.5-106.3h70v97.1c0,7.3,5.9,13.2,13.2,13.2h6.7c7.3,0,13.2-5.9,13.2-13.2
		V312.1h-3v160.1c0,5.6-4.6,10.2-10.2,10.2h-6.7c-5.6,0-10.2-4.6-10.2-10.2v-17.1h13.6v-3H-823v-13h13.6v-3H-823v-13h13.6v-3H-823
		v-13h13.6v-3H-823v-13h13.6v-3H-823v-13h13.6v-3H-823v-13h13.6v-3H-823v-44h-3v60h-69.7c0-0.1,0-0.2,0-0.4
		c3.9-39.8,23.1-75.7,54-101c38.5-31.6,90-41.9,137.8-27.7l0.9-2.9c-48.8-14.5-101.3-4-140.6,28.3c-31.5,25.9-51.1,62.5-55.1,103
		s8,80.3,33.9,111.8c30.1,36.7,74,55.8,118.2,55.8c34.1,0,68.4-11.3,96.7-34.6C-610.6,472.3-589.9,422.8-594.7,372.2z"/>
	<path class="st0" d="M-824.6,297.2c-3.9,0-7,3.1-7,7v0.7c0,3.9,3.1,7,7,7h30.4c3.9,0,7-3.1,7-7v-0.7c0-3.9-3.1-7-7-7H-824.6z
		 M-790.2,304.2v0.7c0,2.2-1.8,4-4,4h-30.4c-2.2,0-4-1.8-4-4v-0.7c0-2.2,1.8-4,4-4h30.4C-792,300.2-790.2,302-790.2,304.2z"/>
	<path class="st0" d="M-764.7,312.1v160.1c0,7.3,5.9,13.2,13.2,13.2h6.7c7.3,0,13.2-5.9,13.2-13.2V312.1h-3v160.1
		c0,5.6-4.6,10.2-10.2,10.2h-6.7c-5.6,0-10.2-4.6-10.2-10.2V312.1H-764.7z"/>
	<path class="st0" d="M-725.9,305v-0.7c0-3.9-3.1-7-7-7h-30.4c-3.9,0-7,3.1-7,7v0.7c0,3.9,3.1,7,7,7h30.4
		C-729,312-725.9,308.8-725.9,305z M-728.9,305c0,2.2-1.8,4-4,4h-30.4c-2.2,0-4-1.8-4-4v-0.7c0-2.2,1.8-4,4-4h30.4c2.2,0,4,1.8,4,4
		V305z"/>
	<path class="st0" d="M-709,304.2v0.7c0,3.9,3.1,7,7,7h30.4c3.9,0,7-3.1,7-7v-0.7c0-3.9-3.1-7-7-7H-702
		C-705.9,297.2-709,300.4-709,304.2z M-706,304.2c0-2.2,1.8-4,4-4h30.4c2.2,0,4,1.8,4,4v0.7c0,2.2-1.8,4-4,4H-702c-2.2,0-4-1.8-4-4
		V304.2z"/>
</g>
</svg>
