<svg viewBox="-408 244 304 306" version="1.1" xmlns="http://www.w3.org/2000/svg" xmlns:xlink="http://www.w3.org/1999/xlink">
  <g id="services-massage" stroke="none" stroke-width="1" fill="none" fill-rule="evenodd" transform="translate(-408.000000, 244.000000)">
    <path d="M230.9,103.6 C222.2,109.1 213.9,114.3 209.4,116.5 C200,121.1 200,121.1 195.4,122.3 C187.5,124.4 182.1,134.1 176.3,145.6 C170.3,157.7 166.6,161.5 162.3,165.9 C156.6,171.7 158.1,175.3 159.5,177 C161.3,179.1 164.8,180.1 168.4,180.1 C172,180.1 175.8,179.2 178.1,177.5 C182.1,174.7 183.6,172.5 185.3,170.2 C186.6,168.4 188,166.5 190.8,163.9 L192.9,161.8 C192.7,165.2 192.6,168.8 192.8,172.5 C193.1,179.5 192.1,184.3 191,189.4 C190.4,192.3 189.8,195.2 189.4,198.6 C188.3,208.1 186.8,221.2 195.8,223 C196.5,223.2 197.2,223.2 197.9,223.2 C199.6,223.2 201.1,222.7 202.2,222 C201.6,229.3 202.8,234.3 207.7,235.7 C208.9,236 210,236.2 211.1,236.2 C213.2,236.2 215.1,235.6 216.8,234.4 C218.1,233.5 219.2,232.3 220,230.7 C220.4,231.5 220.9,232.2 221.5,232.8 C222.8,233.9 224.4,234.5 226.4,234.5 C227.8,234.5 229.4,234.2 231.1,233.7 C236.2,232.1 238.9,227.8 240.8,221.2 L241.9,221.2 C252.9,221.2 256.3,213.2 258.2,204.5 C260.2,195.6 265.3,184.7 269.7,175.2 C270.3,174 270.8,172.8 271.4,171.6 C276.5,160.7 279,155.3 279.2,148.6 C279.3,145.7 279.5,140.9 279.6,136.6 C279.7,136.6 279.7,136.6 279.8,136.5 C288.3,132.2 301.5,125.5 301.5,125.5 L300.1,122.8 C300.1,122.8 288.2,128.9 279.7,133.2 C279.8,129.8 279.9,127.3 279.9,127.3 L276.9,127.2 C276.9,127.2 276.3,142.2 276.1,148.5 C275.9,154.5 273.4,159.8 268.6,170.3 C268.1,171.5 267.5,172.7 266.9,173.9 C262.4,183.6 257.2,194.6 255.1,203.8 C252.8,214.3 249,218.3 241.4,218.2 C241.7,216.7 242,215.2 242.3,213.6 C244.1,203.7 246.2,196 248.1,189.3 C249.2,185.5 250.2,182 251,178.3 C253.4,168.1 254,161 254,160.7 C254.1,159.9 253.5,159.2 252.6,159.1 C251.8,159 251.1,159.6 251,160.5 C251,160.6 250.4,167.6 248.1,177.6 C247.3,181.2 246.3,184.7 245.2,188.5 C243.3,195.3 241.1,203.1 239.3,213.1 C237.2,224.6 234.7,229.4 230,230.9 C227.8,231.6 224.9,232.1 223.2,230.6 C222,229.5 221.5,227.4 221.9,224.9 L221.9,224.7 C222.3,223 222.5,221.2 222.6,219.2 C223.3,208.8 225,204.1 227.1,198.7 C228.3,195.4 229.6,192 230.8,187.1 C233.9,174 234.8,166.4 234.8,166.1 C234.9,165.3 234.3,164.5 233.5,164.4 C232.7,164.3 231.9,164.9 231.8,165.7 C231.8,165.8 230.9,173.5 227.8,186.4 C226.7,191.2 225.4,194.5 224.2,197.7 C222.2,203.1 220.2,208.2 219.5,219.1 C219.1,225.6 217.4,230.2 214.5,232.2 C212.7,233.5 210.5,233.7 207.9,233 C201.1,231.1 206,212.7 208.9,201.7 C213,186.4 216,163.9 216.1,163.7 C216.2,162.9 215.6,162.1 214.8,162 C214,161.9 213.2,162.5 213.1,163.3 C213.1,163.5 210,185.8 206,201 C204.5,206.7 203.1,212.2 202.3,217 C202.1,217.2 201.9,217.4 201.8,217.6 C201.7,217.7 200.4,221.2 195.8,220.3 C189.5,219 190.8,207.6 191.8,199.2 C192.2,195.9 192.8,193 193.4,190.2 C194.5,185.1 195.6,179.9 195.2,172.5 C194.5,159 197.3,146 197.3,145.9 C197.5,145.1 197,144.3 196.2,144.1 C195.4,143.9 194.6,144.4 194.4,145.2 C194.3,145.5 193.4,150 192.7,156.5 C192.5,156.7 192.3,157.1 192.3,157.4 C192,157.8 191,159 188.1,161.7 C185.1,164.5 183.6,166.6 182.2,168.5 C180.6,170.8 179.3,172.6 175.7,175.1 C171.7,177.9 163.4,177.9 161,175.2 C159.3,173.2 161.9,169.9 163.7,168.2 C168,163.8 172,159.6 178.2,147.1 C184.5,134.5 189.3,127 195.4,125.3 C200.2,124 200.4,123.9 209.9,119.2 C214.5,116.9 222.9,111.7 231.7,106.1 C240.7,100.4 250.1,94.5 257,90.8 C270.9,83.4 282,75.9 282.1,75.8 C282.8,75.3 283,74.4 282.5,73.7 C282,73 281.1,72.8 280.4,73.3 C280.3,73.4 269.3,80.7 255.6,88.1 C249.3,92 239.9,97.9 230.9,103.6 L230.9,103.6 Z M195,256.2 C189.5,252.9 186.9,251.3 182.5,239.2 C178.2,227.3 170.1,226.2 165.7,225.6 C164.8,225.5 164,225.4 163.5,225.2 C162.7,224.9 161.9,225.3 161.6,226.1 C161.3,226.9 161.7,227.7 162.5,228 C163.2,228.3 164.2,228.4 165.2,228.5 C169.5,229.1 175.9,230 179.6,240.2 C184.4,253.3 187.6,255.2 193.4,258.7 L194.7,259.5 C194.9,259.6 195.2,259.7 195.5,259.7 C196,259.7 196.5,259.4 196.8,259 C197.2,258.3 197,257.4 196.3,256.9 L195,256.2 L195,256.2 Z" id="Shape" fill="#000000"></path>
    <path d="M300.3,180.8 C287.1,251.5 225.2,302.8 153.2,302.8 C123.7,302.8 96.2,294.2 73.1,279.5 C75.7,277.2 81.3,272.5 88.6,267.1 C98.6,259.8 111.7,235.4 120.3,219.3 L122.2,215.7 C130.3,200.7 147.8,192.5 148,192.4 C148.8,192.1 149.1,191.2 148.7,190.4 C148.4,189.6 147.5,189.3 146.7,189.7 C145.9,190 128.1,198.4 119.5,214.3 L117.6,217.9 C109.1,233.8 96.3,257.8 86.8,264.7 C78.7,270.6 72.7,275.8 70.4,277.8 C30.1,251 3.5,205.1 3.5,153.1 C3.5,83.1 53.1,21.6 121.3,6.8 C131.7,4.5 142.4,3.4 153.1,3.4 C155.7,3.4 158.3,3.5 161,3.6 C156.2,12.4 138.9,44.1 128.7,59 C124.5,65.2 120.7,71.5 117.4,77.1 C111.5,87.1 106.4,95.7 101.8,97.8 C93.9,101.4 82.5,108.7 77.7,112.3 C74.8,114.4 72.5,118.9 69.9,124.5 C68.5,126.4 49.3,152.2 39.8,161.4 C36,165 36.1,168.1 36.5,169.6 C37,171.3 38.2,172.7 40,173.6 C36.9,178.5 34.7,182 34.1,182.9 C32.6,185 32.7,188 34.3,190.2 C35.4,191.7 37.1,192.5 39,192.7 C36.6,196.5 35.7,199.6 36.4,202 C36.9,203.9 38.3,205.2 40.5,206.1 C41.3,206.4 42.2,206.6 43.2,206.6 C48.1,206.6 54.3,203.1 56.5,201.8 C58,202.4 59.6,202.7 61.3,202.7 C64.8,202.7 68.7,201.4 72.7,198.9 C76.3,196.7 79.2,193.3 82.9,189 C86.7,184.6 91.4,179.1 98.5,173.1 C106.9,166.1 110.9,161.5 114.8,157.1 C117.4,154.2 120.1,151.2 124.1,147.4 C127.3,144.3 129.5,142.4 131,141.1 C130.6,143 129.9,145.9 128.7,150.1 L128.3,151.6 C126.5,158.3 125,164.1 125.4,166.7 C126,170.2 128.1,172.9 131,173.9 C133.9,174.9 137.2,174.1 139.9,171.6 C143.2,168.6 144.6,165.4 146.6,160.9 C147.7,158.3 149,155.4 151,151.7 C151.7,150.4 152.5,149 153.2,147.6 C158.6,137.9 164.6,127 164.2,111.3 C164,105.5 163.4,100 162.9,95.2 C161.9,85.8 161,78.3 164.2,75 C165.7,73.4 167.9,71.2 170.6,68.4 C177.8,61.1 188.6,50.1 199.3,38.6 C203.4,34.2 217.7,20.1 217.9,19.9 C218.5,19.3 218.5,18.4 217.9,17.8 C232.8,25 246.6,34.7 258.7,46.7 L260.8,44.6 C234.7,18.7 200.9,3.3 164.5,0.6 C164.4,0.5 164.4,0.5 164.3,0.5 C163.8,0.2 163.3,0.3 162.8,0.5 C159.6,0.3 156.4,0.2 153.1,0.2 C142.2,0.2 131.2,1.4 120.6,3.7 C87.1,11 56.6,29.7 34.7,56.4 C12.6,83.5 0.4,117.8 0.4,152.9 C0.4,206 27.7,252.9 68.9,280.2 C69,280.3 69,280.5 69.2,280.6 C69.5,280.9 69.9,281.1 70.3,281.1 C94.2,296.6 122.6,305.6 153.1,305.6 C226.6,305.6 289.7,253.3 303.2,181.1 L300.3,180.8 L300.3,180.8 Z M39.3,168.9 C38.9,167.4 39.8,165.6 41.8,163.7 C45.8,159.8 51.4,153.3 56.6,146.7 C51.1,155.7 45.7,164.5 41.5,171.2 C40.4,170.6 39.6,169.8 39.3,168.9 L39.3,168.9 Z M215.7,18.1 C215.1,18.7 201.1,32.4 197,36.9 C186.4,48.4 175.6,59.4 168.4,66.6 C165.7,69.4 163.4,71.6 161.9,73.2 C157.7,77.5 158.6,85.6 159.7,95.8 C160.2,100.5 160.8,105.9 161,111.6 C161.4,126.5 155.6,137.1 150.4,146.4 C149.6,147.8 148.9,149.2 148.1,150.5 C146.1,154.3 144.7,157.4 143.6,159.9 C141.6,164.3 140.4,167 137.6,169.6 C135.8,171.3 133.6,171.9 131.7,171.2 C129.8,170.6 128.5,168.8 128.1,166.4 C127.7,164.2 129.7,156.9 130.9,152.6 L131.3,151.1 C134.1,140.9 134.3,138.1 134.3,137.8 L134.4,135.5 L132.3,136.3 C131.2,136.7 127.4,140 121.7,145.3 C117.6,149.1 114.9,152.2 112.3,155.2 C108.5,159.5 104.5,164 96.3,170.9 C89,177 84.2,182.6 80.4,187.1 C76.9,191.2 74.1,194.4 70.9,196.4 C65.5,199.7 60.4,200.6 56.8,198.8 C56.5,198.7 55.8,198.2 55.7,197.1 C55.5,195.3 56.4,191.1 65.6,183 C79.1,170.9 88.7,156 95.7,145.1 C98.8,140.3 101.5,136.1 103.9,133.1 C104.4,132.5 104.3,131.5 103.7,131 C103.1,130.5 102.1,130.6 101.6,131.2 C99.1,134.3 96.4,138.5 93.2,143.4 C86.3,154.1 76.8,168.9 63.6,180.7 C55.9,187.6 52.2,193.3 52.8,197.5 C52.9,198.4 53.2,199.2 53.7,199.9 C49.8,202.1 44.1,204.5 41.4,203.4 C40.1,202.9 39.3,202.2 39.1,201.3 C38.7,199.9 39.1,197.2 43.1,191.9 C43.7,191.2 65.2,164.7 79.5,140.6 C79.9,139.9 79.7,139 79,138.5 C78.3,138.1 77.4,138.3 76.9,139 C63.5,161.6 43.6,186.4 41,189.6 C39,190.1 37.4,189.8 36.5,188.5 C35.7,187.4 35.6,185.8 36.3,184.7 C38.6,181.3 58.4,149.7 72.2,126.1 L72.2,125.9 C74.6,120.8 76.8,116.4 79.2,114.7 C83.9,111.2 95,104.1 102.8,100.6 C108.2,98.1 113.3,89.5 119.7,78.7 C123,73.2 126.7,66.9 130.9,60.8 C141.7,45 160.5,10.5 164,3.9 C182.5,5.3 200.3,10 216.7,17.7 C216.6,17.6 216.1,17.7 215.7,18.1 L215.7,18.1 Z" id="Shape" fill="#000000"></path>
  </g>
</svg>
