<svg xmlns="http://www.w3.org/2000/svg" viewBox="0 0 595.3 841.9">
  <path d="M-594.7 372.2l-2 .2v-.2h-73.5v-60h-3v160.1c0 5.6-4.6 10.2-10.2 10.2h-6.7c-5.6 0-10.2-4.6-10.2-10.2V312.1h-3v160.1c0 7.3 5.9 13.2 13.2 13.2h6.7c7.3 0 13.2-5.9 13.2-13.2v-97.1h72.8c3.7 48.7-16.5 96-54.3 127-63.8 52.3-158.3 43-210.7-20.8-24.6-30-36.5-67.7-33.5-106.3h70v97.1c0 7.3 5.9 13.2 13.2 13.2h6.7c7.3 0 13.2-5.9 13.2-13.2v-160h-3v160.1c0 5.6-4.6 10.2-10.2 10.2h-6.7c-5.6 0-10.2-4.6-10.2-10.2v-17.1h13.6v-3H-823v-13h13.6v-3H-823v-13h13.6v-3H-823v-13h13.6v-3H-823v-13h13.6v-3H-823v-13h13.6v-3H-823v-13h13.6v-3H-823v-44h-3v60h-69.7v-.4c3.9-39.8 23.1-75.7 54-101 38.5-31.6 90-41.9 137.8-27.7l.9-2.9c-48.8-14.5-101.3-4-140.6 28.3-31.5 25.9-51.1 62.5-55.1 103s8 80.3 33.9 111.8c30.1 36.7 74 55.8 118.2 55.8 34.1 0 68.4-11.3 96.7-34.6 39.3-32.1 60-81.6 55.2-132.2z"/>
  <path d="M-824.6 297.2c-3.9 0-7 3.1-7 7v.7c0 3.9 3.1 7 7 7h30.4c3.9 0 7-3.1 7-7v-.7c0-3.9-3.1-7-7-7h-30.4zm34.4 7v.7c0 2.2-1.8 4-4 4h-30.4c-2.2 0-4-1.8-4-4v-.7c0-2.2 1.8-4 4-4h30.4c2.2 0 4 1.8 4 4zM-764.7 312.1v160.1c0 7.3 5.9 13.2 13.2 13.2h6.7c7.3 0 13.2-5.9 13.2-13.2V312.1h-3v160.1c0 5.6-4.6 10.2-10.2 10.2h-6.7c-5.6 0-10.2-4.6-10.2-10.2V312.1h-3zM-725.9 305v-.7c0-3.9-3.1-7-7-7h-30.4c-3.9 0-7 3.1-7 7v.7c0 3.9 3.1 7 7 7h30.4c3.9 0 7-3.2 7-7zm-3 0c0 2.2-1.8 4-4 4h-30.4c-2.2 0-4-1.8-4-4v-.7c0-2.2 1.8-4 4-4h30.4c2.2 0 4 1.8 4 4v.7zM-709 304.2v.7c0 3.9 3.1 7 7 7h30.4c3.9 0 7-3.1 7-7v-.7c0-3.9-3.1-7-7-7H-702c-3.9 0-7 3.2-7 7zm3 0c0-2.2 1.8-4 4-4h30.4c2.2 0 4 1.8 4 4v.7c0 2.2-1.8 4-4 4H-702c-2.2 0-4-1.8-4-4v-.7z"/>
</svg>
