<svg xmlns="http://www.w3.org/2000/svg" viewBox="0 0 595.3 841.9">
  <path d="M-498.1 377.4c-2.2 82.5-71.2 147.8-153.7 145.6-82.5-2.2-147.8-71.2-145.6-153.7 2.2-82.5 71.2-147.8 153.7-145.6 23.8.6 46.4 6.7 67.2 18l1.4-2.6c-21.2-11.5-44.3-17.7-68.6-18.4-84.1-2.3-154.5 64.3-156.8 148.5-2.3 84.2 64.3 154.5 148.5 156.8 1.4 0 2.8.1 4.2.1 82.3 0 150.3-65.8 152.6-148.5l-2.9-.2z"/>
  <path d="M-577.8 348.7c-9.7-9.3-22.8-15-37.2-15-8.2 0-15.9 1.8-22.8 5.1-7.6-20.5-27.4-35.2-50.5-35.2-29.7 0-53.8 24.2-53.8 53.8 0 29.2 23.3 53 52.3 53.8v26.2H-709v3h19.1v13.2h3v-13.2h19.1v-3h-19.1v-26.2c7.6-.2 14.8-2 21.3-5.1 7.6 20.5 27.4 35.2 50.5 35.2 29.7 0 53.8-24.2 53.8-53.8 0-14.2-5.5-27.1-14.5-36.7l34.5-34.5v28.1h3v-33.2h-33.2v3h28.1l-34.4 34.5zm-110.6 59.6c-28 0-50.8-22.8-50.8-50.8s22.8-50.8 50.8-50.8c22 0 40.7 14 47.8 33.5-16.8 9.1-28.3 26.9-28.3 47.4 0 5.5.8 10.8 2.4 15.8-6.7 3.1-14.1 4.9-21.9 4.9zm50.8-50.8c0 19.1-10.6 35.8-26.3 44.5-1.4-4.6-2.1-9.4-2.1-14.4 0-19.1 10.6-35.8 26.3-44.5 1.4 4.5 2.1 9.4 2.1 14.4zm22.5 80.9c-22 0-40.7-14-47.8-33.5 16.8-9.1 28.3-26.9 28.3-47.4 0-5.5-.8-10.8-2.4-15.8 6.6-3.2 14-5 21.9-5 28 0 50.8 22.8 50.8 50.8s-22.7 50.9-50.8 50.9z"/>
</svg>
