<?xml version="1.0" encoding="utf-8"?>
<!-- Generator: Adobe Illustrator 19.1.0, SVG Export Plug-In . SVG Version: 6.00 Build 0)  -->
<svg version="1.1" id="Слой_1" xmlns="http://www.w3.org/2000/svg" xmlns:xlink="http://www.w3.org/1999/xlink" x="0px" y="0px"
	 viewBox="0 0 595.3 841.9" style="enable-background:new 0 0 595.3 841.9;" xml:space="preserve">
<style type="text/css">
	.st0{fill:#FFFFFF;}
</style>
<g>
	<path class="st0" d="M-128.2,386.9c-9,82-83.1,141.5-165.1,132.5c-82-9-141.5-83-132.5-165.1c0.1-1,0.2-1.9,0.4-2.9
		c4.4-1.1,72.8-17.1,100.8-0.8c9.7,5.6,16.8,13.5-1.4,47.4c-18.2,33.9-17.7,54.5,1.8,73.4c8.4,8.1,19.5,12.2,30.7,12.2
		c10.7,0,21.5-3.7,30.2-11.1c23-19.7,18.4-50.8,6.3-73.3c-8.3-15.6-10.9-27.8-7.7-36.1c2-5.1,6.3-8.9,12.7-11.2
		c8.6-3,18.9-4.4,33.4-4.5l0-3c-14.9,0.1-25.5,1.5-34.4,4.6c-7.3,2.6-12.1,6.9-14.5,12.9c-3.6,9.2-1,22.2,7.8,38.6
		c11.5,21.5,16,51.1-5.6,69.7c-16.7,14.2-41.7,13.8-56.9-0.9c-18.4-17.8-18.7-37.4-1.3-69.8c17.6-32.7,13.1-43.9,0.3-51.4
		c-27.9-16.3-91.3-2.3-101.9,0.2c11.9-78.9,84.3-135.2,164.3-126.4c33.1,3.6,63.3,17.7,87.2,40.7l2.1-2.2
		c-24.4-23.4-55.2-37.8-89-41.5c-83.7-9.2-159.2,51.5-168.4,135.1c-9.2,83.7,51.5,159.2,135.1,168.4c5.6,0.6,11.2,0.9,16.7,0.9
		c76.8,0,143.1-58,151.7-136.1c0.3-2.3,0.5-4.7,0.6-7l-3-0.2C-127.7,382.3-127.9,384.6-128.2,386.9z"/>
	<path class="st0" d="M-112.5,306.8c-0.2-1.2-0.9-2.3-1.9-3l-21.2-14.8c-2.1-1.4-5-1-6.5,1l-15.4,20.1c-0.6,0.7-1.6,0.9-2.4,0.4
		c-2.1-1.4-5-1-6.5,1l-11.4,15.2c-0.7,1-1.1,2.2-0.9,3.4c0.2,1.2,0.9,2.3,1.9,3l6.9,4.8l-51.5,76.3c-3.3,4.1-1.6,9.3,1.9,12.3
		c1.9,1.6,4.3,2.7,6.9,2.7c2.5,0,5.2-1,7.5-3.5l52.8-75.6l6.8,4.7c0.8,0.6,1.7,0.8,2.7,0.8c1.4,0,2.9-0.7,3.8-1.9l11.7-15.5
		c1.4-1.8,1.2-4.4-0.5-5.9l-0.5-0.5c-0.5-0.5-0.6-1.4-0.2-2l15.1-19.8C-112.6,309.3-112.3,308-112.5,306.8z M-207.4,423.8
		c-3.6,3.8-7.7,2.7-10.2,0.5c-2.4-2.1-3.6-5.6-1.5-8.2l51.2-75.8l12.6,8.8L-207.4,423.8z M-115.8,308.4l-15.1,19.8l0,0
		c-1.4,1.8-1.2,4.4,0.5,5.9l0.5,0.5c0.5,0.5,0.6,1.4,0.1,2l-11.7,15.5c-0.6,0.7-1.6,0.9-2.4,0.4l-31.2-21.7c-0.3-0.2-0.6-0.6-0.6-1
		s0-0.8,0.3-1.1l11.4-15.2c0.3-0.4,0.9-0.7,1.4-0.7c0.3,0,0.7,0.1,1,0.3c2.1,1.4,5,1,6.5-1l15.4-20.1c0.6-0.7,1.6-0.9,2.4-0.4
		l21.2,14.8c0.3,0.2,0.6,0.6,0.6,1C-115.4,307.7-115.5,308.1-115.8,308.4z"/>
	<path class="st0" d="M-316.9,446.2c2.8,10.4,12.2,17.2,22.5,17.2c2,0,4-0.3,6.1-0.8c6.1-1.6,11.3-5.7,14.4-11.2
		c3-5.4,3.7-11.6,2-17.4c-0.8-2.6-1.4-4.7-1.9-6.5c-1.6-5.6-2.5-8.3-3.9-13.9c-2.5-9.8-3.8-18.4-4-38.2c-0.6-50.9-12.9-78-23.2-91.7
		c-11.3-15.1-22.5-17.9-23-18l-4.8-1.1l3.3,3.6c0.2,0.2,15.2,16.7,24.5,44.8c8.5,26,13.7,67.3-10.3,117
		C-317.9,435.2-318.4,440.7-316.9,446.2z M-312.6,431.3c24.5-50.5,19.2-92.7,10.5-119.2c-6.6-20-15.9-34.1-21.1-41.1
		c4.1,2.3,10.1,6.7,16,14.7c9.9,13.4,21.9,39.8,22.4,89.6c0.2,20.1,1.6,28.9,4.1,38.9c1.4,5.6,2.3,8.4,3.9,14
		c0.5,1.8,1.2,3.9,1.9,6.5c1.5,5.1,0.8,10.4-1.8,15.1c-2.7,4.8-7.2,8.3-12.5,9.7c-10.8,2.9-22-3.5-24.9-14.3
		C-315.3,440.6-314.9,436-312.6,431.3z"/>
	<path class="st0" d="M-294.7,446.3c0.1,0,0.1,0,0.2,0c3-0.1,5.7-1.6,7.3-4.1l-2.5-1.6c-1,1.7-2.8,2.7-4.8,2.7c-1.5,0-3-0.5-4.1-1.6
		s-1.7-2.5-1.8-4.1c0-1.1,0.3-2.2,0.8-3.1l-2.6-1.6c-0.9,1.4-1.3,3.1-1.3,4.7c0,2.3,1,4.5,2.7,6.2
		C-299.1,445.5-297,446.3-294.7,446.3z"/>
</g>
</svg>
