<?xml version="1.0" encoding="utf-8"?>
<!-- Generator: Adobe Illustrator 19.1.0, SVG Export Plug-In . SVG Version: 6.00 Build 0)  -->
<svg version="1.1" id="Слой_1" xmlns="http://www.w3.org/2000/svg" xmlns:xlink="http://www.w3.org/1999/xlink" x="0px" y="0px"
	 viewBox="0 0 595.3 841.9" style="enable-background:new 0 0 595.3 841.9;" xml:space="preserve">
<style type="text/css">
	.st0{fill:#FFFFFF;}
</style>
<g>
	<path class="st0" d="M-246.3,334.3l-2.7,1.4c11.1,21.2,17,45.2,17,69.4c0,82.5-67.1,149.7-149.7,149.7
		c-82.5,0-149.7-67.1-149.7-149.7c0-82.5,67.1-149.7,149.7-149.7c28.1,0,55.5,7.8,79.2,22.6l1.6-2.5c-24.2-15.1-52.1-23.1-80.8-23.1
		c-84.2,0-152.7,68.5-152.7,152.7c0,84.2,68.5,152.7,152.7,152.7c84.2,0,152.7-68.5,152.7-152.7
		C-228.9,380.4-234.9,355.9-246.3,334.3z"/>
	<path class="st0" d="M-307.5,323.6l-4.7-1.4c-5.5-1.6-11.4-0.1-15.4,3.8l-56.1,50.5l-17.6-3.3c-4.4-0.7-9,0.8-12.1,4l-8.3,8.3
		c-2.3,2.3-3.2,5.5-2.6,8.6c2.8,14,9.6,26.7,19.7,36.7c10.1,10.1,22.8,16.9,36.7,19.7c0.6,0.1,1.3,0.2,1.9,0.2c2.5,0,4.9-1,6.7-2.8
		l8.3-8.3c3.2-3.2,4.6-7.7,3.9-12.2l-3.3-17.5l50.4-56c4-4,5.5-10,3.9-15.4l-1.4-4.7c-0.8-2.7-1.4-4.5-2.1-5.8l27.3-27.3l-2.1-2.1
		l-27.3,27.3C-303,325-304.8,324.4-307.5,323.6z M-350,427.9c0.5,3.5-0.6,7-3.1,9.5l-8.3,8.3c-1.5,1.5-3.8,2.2-5.9,1.8
		c-13.4-2.7-25.5-9.2-35.2-18.8c-9.6-9.6-16.2-21.8-18.8-35.2c-0.4-2.1,0.2-4.4,1.8-5.9l8.3-8.3c2.1-2.1,4.9-3.2,7.8-3.2
		c0.6,0,1.1,0,1.7,0.1l17.8,3.4l30.6,30.6L-350,427.9z M-302.1,351.8l-49.9,55.4l-29-29l55.5-49.9c3.3-3.3,8-4.5,12.4-3.1l4.7,1.4
		c3.2,1,4.9,1.5,5.7,2.3c0.9,0.9,1.3,2.5,2.3,5.7l1.4,4.7C-297.6,343.7-298.8,348.4-302.1,351.8z"/>
	<path class="st0" d="M-357.4,470.9c-5.6,1.4-11.4,2.1-17.2,2.1c-39.7,0-72-32.3-72-72c0-5,0.5-10.1,1.6-15l-2.9-0.6
		c-1.1,5.2-1.7,10.4-1.7,15.7c0,41.3,33.6,75,75,75c6,0,12.1-0.7,17.9-2.2L-357.4,470.9z"/>
	<path class="st0" d="M-475.6,385.4c-0.8,5.1-1.2,10.4-1.2,15.6c0,56.3,45.8,102.1,102.1,102.1c6,0,12-0.5,17.8-1.6l-0.5-3
		c-5.7,1-11.5,1.5-17.3,1.5c-54.7,0-99.1-44.5-99.1-99.1c0-5.1,0.4-10.2,1.1-15.1L-475.6,385.4z"/>
	<path class="st0" d="M-501.9,385.4c-1,6.5-1.5,13-1.5,19.6c0,68.8,56,124.9,124.9,124.9c7.3,0,14.7-0.6,21.8-1.9l-0.5-3
		c-7,1.2-14.2,1.9-21.3,1.9c-67.2,0-121.9-54.7-121.9-121.9c0-6.4,0.5-12.8,1.5-19.1L-501.9,385.4z"/>
</g>
</svg>
